<svg enable-background="new 0 0 800 180" viewBox="0 0 800 180" xmlns="http://www.w3.org/2000/svg"><g fill="#999"><path d="m559.4 57.5c-8 0-15.7 3.3-21.3 9.1v-30.8c0-1-.8-1.8-1.8-1.8h-10.8c-1 0-1.8.8-1.8 1.8v83.4c0 1 .8 1.8 1.8 1.8h10.8c1 0 1.8-.8 1.8-1.8v-5.7c5.6 5.8 13.2 9.1 21.3 9.1 16.9 0 30.6-14.6 30.6-32.5s-13.7-32.6-30.6-32.6zm-2.6 52c-10.3 0-18.6-8.6-18.7-19.3v-.5c.2-10.7 8.4-19.3 18.7-19.3 10.4 0 18.7 8.7 18.7 19.5s-8.4 19.6-18.7 19.6z"/><path d="m629.8 57.5c-18.3 0-33.1 14.6-33.1 32.5s14.8 32.5 33.1 32.5 33.1-14.6 33.1-32.5-14.8-32.5-33.1-32.5zm0 52c-10.4 0-18.7-8.7-18.7-19.5s8.4-19.5 18.7-19.5 18.7 8.7 18.7 19.5-8.5 19.5-18.7 19.5z"/><path d="m427.4 59.1h-10.8c-1 0-1.8.8-1.8 1.8v5.7c-5.6-5.8-13.2-9.1-21.3-9.1-16.9 0-30.6 14.6-30.6 32.5s13.7 32.5 30.6 32.5c8 0 15.7-3.3 21.3-9.1v5.7c0 1 .8 1.8 1.8 1.8h10.8c1 0 1.8-.8 1.8-1.8v-58.2c0-1-.8-1.8-1.8-1.8zm-31.4 50.4c-10.4 0-18.7-8.7-18.7-19.5s8.4-19.5 18.7-19.5 18.6 8.6 18.7 19.3v.5c-.1 10.6-8.4 19.2-18.7 19.2z"/><path d="m481.6 57.5c-8 0-15.7 3.3-21.3 9.1v-5.7c0-1-.8-1.8-1.8-1.8h-10.8c-1 0-1.8.8-1.8 1.8v83.4c0 1 .8 1.8 1.8 1.8h10.8c1 0 1.8-.8 1.8-1.8v-30.8c5.6 5.8 13.2 9.1 21.3 9.1 16.9 0 30.6-14.6 30.6-32.5s-13.7-32.6-30.6-32.6zm-2.5 52c-10.3 0-18.6-8.6-18.7-19.3v-.5c.2-10.7 8.4-19.3 18.7-19.3 10.4 0 18.7 8.7 18.7 19.5s-8.4 19.6-18.7 19.6z"/><path d="m330.5 57.5c-8.1.1-15.5 4.8-18.9 12.1-4-7.5-11.9-12.2-20.4-12.1-6.6 0-12.9 3.2-16.8 8.6v-5.2c0-1-.8-1.8-1.8-1.8h-10.8c-1 0-1.8.8-1.8 1.8v58.3c0 1 .8 1.8 1.8 1.8h10.8c1 0 1.8-.8 1.8-1.8v-34.9c.4-7.8 5.8-14 12.5-14 6.9 0 12.6 5.7 12.6 13.3v35.6c0 1 .8 1.8 1.8 1.8h10.9c1 0 1.8-.8 1.8-1.8l-.1-36.3c1-7.1 6.1-12.6 12.3-12.6 6.9 0 12.6 5.7 12.6 13.3v35.6c0 1 .8 1.8 1.8 1.8h10.9c1 0 1.8-.8 1.8-1.8l-.1-40.1c0-12-10.2-21.6-22.7-21.6z"/><path d="m721.3 118.4-18.8-28.6 18.6-28.3c.5-.7.2-1.8-.5-2.3-.2-.2-.6-.2-.9-.2h-12.5c-1 0-1.9.5-2.3 1.3l-10.9 18.4-11-18.3c-.5-.8-1.4-1.3-2.3-1.3h-12.5c-.9 0-1.6.7-1.6 1.6 0 .3.1.6.2.9l18.6 28.3-18.8 28.6c-.5.7-.2 1.8.5 2.3.2.2.6.2.9.2h12.5c1 0 1.9-.5 2.3-1.3l11.2-18.6 11.2 18.6c.5.8 1.4 1.3 2.3 1.3h12.4c.9 0 1.6-.7 1.6-1.6 0-.3 0-.7-.2-1z"/><path d="m154.1 18c-39.7 0-72 32.2-72 71.9s32.2 71.9 72 71.9 71.9-32.2 71.9-71.9-32.1-71.9-71.9-71.9zm34.2 89.6c-24.6 24.6-68.6 16.8-68.6 16.8s-7.9-43.9 16.8-68.6c13.7-13.7 36.3-13.1 50.7 1.1 14.3 14.3 14.8 37.1 1.1 50.7z"/><path d="m162.4 60.2-7.1 14.5-14.5 7 14.5 7.1 7.1 14.5 7-14.5 14.5-7.1-14.5-7z"/></g></svg>