<svg viewBox="0 0 391.61 202.02" xmlns="http://www.w3.org/2000/svg"><path d="m43.14 184.38a25.65 25.65 0 0 1 -25.62-25.62v-112.28a25.65 25.65 0 0 1 25.62-25.62h304.6a25.65 25.65 0 0 1 25.62 25.62v137.9z" fill="#231f20"/><path d="m347.74 18.77h-304.6a27.74 27.74 0 0 0 -27.71 27.71v112.28a27.74 27.74 0 0 0 27.71 27.71h332.31v-140a27.74 27.74 0 0 0 -27.71-27.71m0 4.18a23.53 23.53 0 0 1 23.53 23.53v135.82h-328.13a23.54 23.54 0 0 1 -23.53-23.53v-112.28a23.53 23.53 0 0 1 23.53-23.53z" fill="#231f20"/><g fill="#fff"><path d="m305.39 64.38h12.45l18.64 24.88h-12.43l9.33 12.43h-15.55l-9.33-12.43h6.22l-9.33-12.45h9.32z" fill-rule="evenodd"/><path d="m305.39 64.38h-12.44l-18.65 24.88h12.43l-9.33 12.43h15.55l9.34-12.43h-6.22l9.32-12.45h-9.32z" fill-rule="evenodd"/><path d="m265.49 57.74h2.17v89.75h-2.17z"/><path d="m67.77 66.86h-13.37v21.14c0 10.27 7.63 14.25 17.35 14.25 10.52 0 17.45-3.69 17.45-15v-20.39h-13.06v20.69c0 3.39-.75 5.73-4.24 5.73-3.19 0-4.14-2.49-4.14-5.78z" fill-rule="evenodd"/><path d="m92.93 101.66h12.57v-15c0-1.49 0-3.54 2.24-3.54s2.19 2 2.19 3.54v15h12.56v-18c0-5-2.44-8.53-9.12-8.53-3.54 0-7 1.44-8.48 5.08h-.1v-4.53h-11.86z" fill-rule="evenodd"/><path d="m139.84 64.27h-12.56v8.67h12.56zm-12.56 37.39h12.56v-26h-12.56z" fill-rule="evenodd"/><path d="m144 101.66h12.56v-15c0-1.49 0-3.54 2.24-3.54s2.19 2 2.19 3.54v15h12.56v-15c0-1.49 0-3.54 2.19-3.54s2.24 2 2.24 3.54v15h12.56v-15.56c0-5.08 0-11-9.17-11-3.09 0-7.48 1.44-8.32 4.44h-.1c-1-3.09-4.63-4.44-8.12-4.44-3.94 0-7.38 1.44-8.87 5.08h-.1v-4.5h-11.86z" fill-rule="evenodd"/><path d="m222.71 91.68v-1.54c0-8.77-3.54-15.05-13.61-15.05-10.52 0-16.1 4.39-16.1 13.11 0 9 5.59 14.06 16.1 14.06a39.79 39.79 0 0 0 11.71-1.5v-6.76a19.3 19.3 0 0 1 -8.53 1.65c-3.69 0-6.73-.75-6.93-4zm-17.4-5.48c-.15-2 .5-5.14 3.39-5.14s3.14 3.14 3.14 5.14z" fill-rule="evenodd"/><path d="m244.43 88.54c0 2.44-.4 5.33-3.09 5.33s-3.19-2.89-3.19-5.63.45-5.39 3.09-5.39 3.19 2.69 3.19 5.68m12.21 13.11v-37.37h-12.56v14.73h-.08a8.79 8.79 0 0 0 -7.83-3.94c-7.83 0-11.07 6.13-11.07 13.16 0 7.53 3.09 14 11.41 14 4.09 0 6.63-1.44 8.38-5.33h.1v4.74z" fill-rule="evenodd"/><path d="m54.4 108.33h282.07v2.17h-282.07z"/><path d="m188.72 128.39 2.3.58a7.73 7.73 0 0 1 -2.6 4.31 7.15 7.15 0 0 1 -4.59 1.49 8.24 8.24 0 0 1 -4.57-1.14 7.13 7.13 0 0 1 -2.68-3.31 11.83 11.83 0 0 1 -.92-4.65 10.23 10.23 0 0 1 1-4.73 7.1 7.1 0 0 1 2.95-3.06 8.6 8.6 0 0 1 4.21-1 7.12 7.12 0 0 1 4.38 1.32 6.89 6.89 0 0 1 2.47 3.73l-2.26.53a5.36 5.36 0 0 0 -1.75-2.76 4.68 4.68 0 0 0 -2.89-.86 5.6 5.6 0 0 0 -3.35 1 5.06 5.06 0 0 0 -1.89 2.58 10.35 10.35 0 0 0 -.54 3.33 10.59 10.59 0 0 0 .64 3.86 4.82 4.82 0 0 0 2 2.47 5.64 5.64 0 0 0 2.95.82 4.94 4.94 0 0 0 3.27-1.11 5.69 5.69 0 0 0 1.81-3.3"/><path d="m201.82 134.48v-1.85a4.6 4.6 0 0 1 -4 2.13 5.08 5.08 0 0 1 -2.08-.43 3.41 3.41 0 0 1 -1.43-1.07 4 4 0 0 1 -.66-1.58 10.81 10.81 0 0 1 -.13-2v-7.78h2.13v7a12.37 12.37 0 0 0 .13 2.25 2.23 2.23 0 0 0 .85 1.32 2.64 2.64 0 0 0 1.61.48 3.52 3.52 0 0 0 1.8-.49 2.74 2.74 0 0 0 1.19-1.34 6.72 6.72 0 0 0 .35-2.46v-6.76h2.13v12.57z"/><path d="m207 134.48v-12.58h2v1.91a5.18 5.18 0 0 1 1.36-1.76 2.36 2.36 0 0 1 1.37-.42 4.13 4.13 0 0 1 2.19.69l-.73 2a3 3 0 0 0 -1.56-.46 2 2 0 0 0 -1.25.42 2.28 2.28 0 0 0 -.79 1.17 8.29 8.29 0 0 0 -.36 2.49v6.58z"/><path d="m215.15 134.48v-12.58h2.13v12.57zm0-14.91v-2.45h2.13v2.45z"/><path d="m225.18 132.57.31 1.88a7.93 7.93 0 0 1 -1.61.19 3.64 3.64 0 0 1 -1.8-.37 2.06 2.06 0 0 1 -.9-1 7.63 7.63 0 0 1 -.26-2.52v-7.23h-1.56v-1.62h1.56v-3.11l2.12-1.28v4.39h2.14v1.66h-2.18v7.35a3.7 3.7 0 0 0 .11 1.17.87.87 0 0 0 .37.41 1.4 1.4 0 0 0 .73.16 6.73 6.73 0 0 0 .94-.08"/><path d="m227.27 134.48v-12.58h2.13v12.57zm0-14.91v-2.45h2.13v2.45z"/><path d="m234.59 128.09a6.54 6.54 0 0 0 .62 3.27 3 3 0 0 0 5.14.43 5.52 5.52 0 0 0 1-3.62 5.61 5.61 0 0 0 -1-3.64 3 3 0 0 0 -2.36-1.17 3.07 3.07 0 0 0 -2.42 1.21 5.32 5.32 0 0 0 -1 3.51m0 6.38h-2v-17.34h2.13v6.19a4.21 4.21 0 0 1 3.45-1.69 5.3 5.3 0 0 1 2.2.46 4.52 4.52 0 0 1 1.71 1.32 6.39 6.39 0 0 1 1 2 8.45 8.45 0 0 1 .38 2.56 7.18 7.18 0 0 1 -1.6 5 5 5 0 0 1 -3.84 1.76 4 4 0 0 1 -3.49-1.86z"/><path d="m254.17 128.16a15.61 15.61 0 0 1 -3.48.81 8 8 0 0 0 -1.86.42 1.85 1.85 0 0 0 -.84.69 1.89 1.89 0 0 0 .35 2.43 2.78 2.78 0 0 0 1.89.57 4.39 4.39 0 0 0 2.19-.54 3.33 3.33 0 0 0 1.41-1.47 5.17 5.17 0 0 0 .34-2.13zm.18 4.76a8 8 0 0 1 -2.28 1.42 6.64 6.64 0 0 1 -2.35.41 4.57 4.57 0 0 1 -3.19-1 3.34 3.34 0 0 1 -1.11-2.59 3.44 3.44 0 0 1 .42-1.69 3.48 3.48 0 0 1 1.1-1.23 5.28 5.28 0 0 1 1.53-.7 15.69 15.69 0 0 1 1.89-.32 19.6 19.6 0 0 0 3.8-.73c0-.29 0-.48 0-.56a2.35 2.35 0 0 0 -.6-1.84 3.56 3.56 0 0 0 -2.43-.72 3.76 3.76 0 0 0 -2.22.53 3.22 3.22 0 0 0 -1.06 1.86l-2.08-.28a5.16 5.16 0 0 1 .93-2.16 4.09 4.09 0 0 1 1.88-1.26 8.36 8.36 0 0 1 2.85-.44 7.6 7.6 0 0 1 2.62.38 3.44 3.44 0 0 1 1.48 1 3.35 3.35 0 0 1 .66 1.45 12 12 0 0 1 .11 2v2.84a30 30 0 0 0 .14 3.76 4.75 4.75 0 0 0 .54 1.51h-2.23a4.51 4.51 0 0 1 -.41-1.64z"/></g></svg>