<svg enable-background="new 0 0 449 448.5" viewBox="0 0 449 448.5" xmlns="http://www.w3.org/2000/svg"><g fill="#9b507b"><path d="m214.7 44.5h12.2v361.2h-12.2z"/><path d="m40.2 219h361.2v12.2h-361.2z"/><path d="m40.2 219h361.2v12.2h-361.2z" transform="matrix(.7071 -.7071 .7071 .7071 -94.497 222.0842)"/><path d="m211.1 44.5h12.2v361.2h-12.2z" transform="matrix(.7071 -.7071 .7071 .7071 -95.5713 219.5186)"/><path d="m212.9 46.3h12.2v361.2h-12.2z" transform="matrix(.9206 -.3904 .3904 .9206 -71.213 103.5185)"/><path d="m38.4 220.8h361.2v12.2h-361.2z" transform="matrix(.3986 -.9171 .9171 .3986 -76.393 337.366)"/><path d="m40.2 222.6h361.2v12.2h-361.2z" transform="matrix(.9206 -.3904 .3904 .9206 -71.7846 104.3713)"/><path d="m215.8 50.7h12.2v361.2h-12.2z" transform="matrix(.3986 -.9171 .9171 .3986 -78.6476 342.5962)"/></g><circle cx="220.8" cy="25.1" fill="#008cf6" r="19.6" stroke="#1477ec" stroke-miterlimit="10" stroke-width="10.88"/><circle cx="220.8" cy="423.4" fill="#008cf6" r="19.6" stroke="#1477ec" stroke-miterlimit="10" stroke-width="10.88"/><circle cx="423.9" cy="225.1" fill="#008cf6" r="19.6" stroke="#1477ec" stroke-miterlimit="10" stroke-width="10.88"/><circle cx="25.1" cy="225.1" fill="#008cf6" r="19.6" stroke="#1477ec" stroke-miterlimit="10" stroke-width="10.88"/><circle cx="82.3" cy="363.6" fill="#008cf6" r="19.6" stroke="#1477ec" stroke-miterlimit="10" stroke-width="10.88"/><circle cx="355.7" cy="363.6" fill="#008cf6" r="19.6" stroke="#1477ec" stroke-miterlimit="10" stroke-width="10.88"/><circle cx="359.2" cy="86.8" fill="#008cf6" r="19.6" stroke="#1477ec" stroke-miterlimit="10" stroke-width="10.88"/><circle cx="78.9" cy="86.8" fill="#008cf6" r="19.7" stroke="#1477ec" stroke-miterlimit="10" stroke-width="10.88"/><circle cx="44.7" cy="154.3" fill="#007af6" r="16.1"/><circle cx="142.2" cy="403.8" fill="#007af6" r="16.1"/><circle cx="295.9" cy="405.7" fill="#007af6" r="16.1"/><circle cx="398.7" cy="308.1" fill="#007af6" r="16.1"/><circle cx="398.7" cy="153.3" fill="#007af6" r="16.1"/><circle cx="296" cy="49.8" fill="#007af6" r="16.1"/><circle cx="143.9" cy="49.8" fill="#007af6" r="16.1"/><circle cx="44.7" cy="303.4" fill="#007af6" r="16.1"/><circle cx="224.5" cy="224.2" fill="#e46ca5" r="126.4" stroke="#9b507b" stroke-miterlimit="10" stroke-width="25.5118"/><circle cx="259" cy="193.7" fill="#9b507b" r="32"/><circle cx="156.4" cy="224.7" fill="#9b507b" r="19.2"/><circle cx="240.5" cy="291.9" fill="#9b507b" r="19.2"/><circle cx="180.6" cy="268" fill="#9b507b" r="9.6"/><circle cx="297.8" cy="253.4" fill="#9b507b" r="9.6"/><circle cx="185.5" cy="165.5" fill="#9b507b" r="9.6"/></svg>