<?xml version="1.0" encoding="utf-8"?>
<!-- Generator: Adobe Illustrator 21.0.2, SVG Export Plug-In . SVG Version: 6.00 Build 0)  -->
<svg version="1.1" id="Camada_1" xmlns="http://www.w3.org/2000/svg" xmlns:xlink="http://www.w3.org/1999/xlink" x="0px" y="0px"
	 viewBox="0 0 50 50" style="enable-background:new 0 0 50 50;" xml:space="preserve">
<style type="text/css">
	.st0{fill:#421BAC;}
</style>
<path class="st0" d="M41.5,0h-33C3.8,0,0,3.8,0,8.5v32.9C0,46.2,3.8,50,8.5,50h32.9c4.7,0,8.5-3.8,8.5-8.5v-33C50,3.8,46.2,0,41.5,0
	z M33.8,13.7h-3.2c-2.5,0-3,1.2-3,2.9v3.9h6l-0.8,6h-5.2V42h-6.2V26.5h-5.2v-6h5.2V16c0-5.2,3.2-8,7.8-8c2.2,0,4.1,0.2,4.7,0.2
	L33.8,13.7z"/>
</svg>
