<svg enable-background="new 0 0 50 50" viewBox="0 0 50 50" xmlns="http://www.w3.org/2000/svg"><g fill="#5e45a4"><circle cx="25" cy="25" r="7.1"/><path d="m31.6 10.9h-13.2c-4.6 0-8.3 3.7-8.3 8.3v11.6c0 4.6 3.7 8.3 8.3 8.3h13.2c4.6 0 8.3-3.7 8.3-8.3v-11.6c0-4.6-3.7-8.3-8.3-8.3zm-6.6 23.6c-5.2 0-9.5-4.2-9.5-9.5 0-5.2 4.2-9.5 9.5-9.5 5.2 0 9.5 4.2 9.5 9.5 0 5.2-4.3 9.5-9.5 9.5zm9.3-16.7c-1.1 0-2-.9-2-2s.9-2 2-2 2 .9 2 2-.9 2-2 2z"/><path d="m41.5 0h-33c-4.7 0-8.5 3.8-8.5 8.5v32.9c0 4.8 3.8 8.6 8.5 8.6h32.9c4.7 0 8.5-3.8 8.5-8.5v-33c.1-4.7-3.7-8.5-8.4-8.5zm.7 30.8c0 5.9-4.8 10.6-10.6 10.6h-13.2c-5.9 0-10.6-4.8-10.6-10.6v-11.6c0-5.9 4.8-10.6 10.6-10.6h13.2c5.9 0 10.6 4.8 10.6 10.6z"/></g></svg>