<svg id="Camada_1" data-name="Camada 1" xmlns="http://www.w3.org/2000/svg" viewBox="0 0 49.9 50"><defs><style>.cls-1{fill:#fff;}</style></defs><circle class="cls-1" cx="25" cy="25" r="7.1"/><path class="cls-1" d="M31.6,10.9H18.4a8.28,8.28,0,0,0-8.3,8.3V30.8a8.28,8.28,0,0,0,8.3,8.3H31.6a8.28,8.28,0,0,0,8.3-8.3V19.2A8.28,8.28,0,0,0,31.6,10.9ZM25,34.5A9.5,9.5,0,1,1,34.5,25,9.5,9.5,0,0,1,25,34.5Zm9.3-16.7a2,2,0,1,1,2-2A2,2,0,0,1,34.3,17.8Z"/><path class="cls-1" d="M49.9,8.5v33A8.49,8.49,0,0,1,41.4,50H8.5A8.51,8.51,0,0,1,0,41.4V8.5A8.49,8.49,0,0,1,8.5,0h33A8.35,8.35,0,0,1,49.9,8.5ZM42.2,30.8V19.2A10.61,10.61,0,0,0,31.6,8.6H18.4A10.61,10.61,0,0,0,7.8,19.2V30.8A10.61,10.61,0,0,0,18.4,41.4H31.6A10.61,10.61,0,0,0,42.2,30.8Z"/></svg>