<?xml version="1.0" encoding="utf-8"?>
<!-- Generator: Adobe Illustrator 21.0.2, SVG Export Plug-In . SVG Version: 6.00 Build 0)  -->
<svg version="1.1" id="Camada_1" xmlns="http://www.w3.org/2000/svg" xmlns:xlink="http://www.w3.org/1999/xlink" x="0px" y="0px"
	 viewBox="0 0 50 50" style="enable-background:new 0 0 50 50;" xml:space="preserve">
<style type="text/css">
	.st0{fill:#421BAC;}
</style>
<g>
	<circle class="st0" cx="25" cy="25" r="7.1"/>
	<path class="st0" d="M31.6,10.9H18.4c-4.6,0-8.3,3.7-8.3,8.3v11.6c0,4.6,3.7,8.3,8.3,8.3h13.2c4.6,0,8.3-3.7,8.3-8.3V19.2
		C39.9,14.6,36.2,10.9,31.6,10.9z M25,34.5c-5.2,0-9.5-4.2-9.5-9.5c0-5.2,4.2-9.5,9.5-9.5c5.2,0,9.5,4.2,9.5,9.5
		C34.5,30.2,30.2,34.5,25,34.5z M34.3,17.8c-1.1,0-2-0.9-2-2s0.9-2,2-2s2,0.9,2,2S35.4,17.8,34.3,17.8z"/>
	<g id="XMLID_1_">
		<g>
			<path class="st0" d="M49.9,8.5v33c0,4.7-3.8,8.5-8.5,8.5H8.5C3.8,50,0,46.2,0,41.4V8.5C0,3.8,3.8,0,8.5,0h33
				C46.2,0,50,3.8,49.9,8.5z M42.2,30.8V19.2c0-5.8-4.7-10.6-10.6-10.6H18.4c-5.8,0-10.6,4.7-10.6,10.6v11.6
				c0,5.8,4.7,10.6,10.6,10.6h13.2C37.4,41.4,42.2,36.7,42.2,30.8z"/>
		</g>
		<g>
		</g>
	</g>
</g>
</svg>
