<svg enable-background="new 0 0 50 50" viewBox="0 0 50 50" xmlns="http://www.w3.org/2000/svg"><path d="m41.5-.2h-33c-4.7 0-8.5 3.8-8.5 8.6v32.9c0 4.7 3.8 8.5 8.5 8.5h32.9c4.7 0 8.5-3.8 8.5-8.5v-32.9c.1-4.8-3.7-8.6-8.4-8.6zm-25.6 40.8h-6.9v-20.9h7v20.9zm-3.3-24.4c-2 0-3.6-1.6-3.6-3.6s1.6-3.6 3.6-3.6 3.6 1.6 3.6 3.6-1.7 3.6-3.6 3.6zm28.4 24.4h-7v-11.2c0-2.8-1-4.7-3.5-4.7-1.9 0-3.1 1.3-3.6 2.5-.2.4-.2 1.1-.2 1.7v11.7h-7s.1-19 0-20.9h7v3c.9-1.4 2.6-3.5 6.3-3.5 4.6 0 8 3 8 9.4z" fill="#5e45a4"/></svg>