<?xml version="1.0" encoding="utf-8"?>
<!-- Generator: Adobe Illustrator 21.0.2, SVG Export Plug-In . SVG Version: 6.00 Build 0)  -->
<svg version="1.1" id="Camada_1" xmlns="http://www.w3.org/2000/svg" xmlns:xlink="http://www.w3.org/1999/xlink" x="0px" y="0px"
	 viewBox="0 0 50 50" style="enable-background:new 0 0 50 50;" xml:space="preserve">
<style type="text/css">
	.st0{fill:#421BAC;}
</style>
<g id="XMLID_1_">
	<g>
		<path class="st0" d="M49.9,8.4v32.9c0,4.7-3.8,8.5-8.5,8.5H8.5C3.8,49.8,0,46,0,41.3V8.4c0-4.8,3.8-8.6,8.5-8.6h33
			C46.2-0.2,50,3.6,49.9,8.4z M41,40.6v-12c0-6.4-3.4-9.4-8-9.4c-3.7,0-5.4,2.1-6.3,3.5v-3h-7c0.1,1.9,0,20.9,0,20.9h7V28.9
			c0-0.6,0-1.3,0.2-1.7c0.5-1.2,1.7-2.5,3.6-2.5c2.5,0,3.5,1.9,3.5,4.7v11.2H41z M16,40.6V19.7H9v20.9h6.9H16z M16.2,12.6
			c0-2-1.6-3.6-3.6-3.6S9,10.6,9,12.6s1.6,3.6,3.6,3.6C14.5,16.2,16.2,14.6,16.2,12.6z"/>
	</g>
	<g>
	</g>
</g>
</svg>
