<svg id="Camada_1" data-name="Camada 1" xmlns="http://www.w3.org/2000/svg" viewBox="0 0 49.9 50"><defs><style>.cls-1{fill:#fff;}</style></defs><path class="cls-1" d="M49.9,8.4V41.3a8.49,8.49,0,0,1-8.5,8.5H8.5A8.49,8.49,0,0,1,0,41.3V8.4A8.51,8.51,0,0,1,8.5-.2h33A8.37,8.37,0,0,1,49.9,8.4ZM41,40.6v-12c0-6.4-3.4-9.4-8-9.4a7,7,0,0,0-6.3,3.5v-3h-7c.1,1.9,0,20.9,0,20.9h7V28.9a4.42,4.42,0,0,1,.2-1.7,3.9,3.9,0,0,1,3.6-2.5c2.5,0,3.5,1.9,3.5,4.7V40.6Zm-25,0V19.7H9V40.6h7Zm.2-28a3.6,3.6,0,1,0-3.6,3.6A3.65,3.65,0,0,0,16.2,12.6Z" transform="translate(0 0.2)"/></svg>