<?xml version="1.0" encoding="utf-8"?>
<!-- Generator: Adobe Illustrator 21.0.2, SVG Export Plug-In . SVG Version: 6.00 Build 0)  -->
<svg version="1.1" id="Camada_1" xmlns="http://www.w3.org/2000/svg" xmlns:xlink="http://www.w3.org/1999/xlink" x="0px" y="0px"
	 viewBox="0 0 50 50" style="enable-background:new 0 0 50 50;" xml:space="preserve">
<style type="text/css">
	.st0{fill:#421BAC;}
</style>
<g id="XMLID_1_">
	<g>
		<path class="st0" d="M11.1,19.3c0.5,1.4,2.3,2.7,2.3,2.7s-0.9,0-1.7-0.3c-0.9-0.3-1.2-0.6-1.2-0.6c-0.5,1.2,0.6,3.4,2.3,5
			c1,0.9,2.9,1.5,2.9,1.5l-2.9,0.1c-0.2,2.8,5.9,4.5,5.9,4.5c-1.8,1.4-3.9,2.2-6.1,2.2c-1.1,0-2.2-0.2-3.3-0.5
			c2.9,2.4,6.7,4.1,10.8,3.8c10.9-0.6,17-9.9,17.3-19.1c0,0,0.5-0.2,1.6-1.3c1-1,1.7-2.2,1.8-2.4c-0.2,0.1-1.6,0.7-2.3,0.9
			C37.8,16,37.3,16,37.3,16v-0.1c0.7-0.5,2.3-2.1,2.5-2.8c0.1-0.3,0-0.4,0-0.4l-2,0.9l-1.7,0.8c-1.2-1.2-3-2-5-2
			c-3.6,0-6.5,2.5-6.5,5.6c0,0.5,0.1,1.6,0.3,2.1c-2.3,0-5.3-1-7.9-2.3c-5.2-2.6-5.5-4.4-5.5-4.4C10.7,14.2,10.3,17.1,11.1,19.3z
			 M49.9,8.5v33c0,4.7-3.8,8.5-8.5,8.5H8.5C3.8,50,0,46.2,0,41.4V8.5C0,3.8,3.8,0,8.5,0h33C46.2,0,50,3.8,49.9,8.5z"/>
	</g>
	<g>
	</g>
</g>
</svg>
