<svg enable-background="new 0 0 50 50" viewBox="0 0 50 50" xmlns="http://www.w3.org/2000/svg"><path d="m41.5 0h-33c-4.7 0-8.5 3.8-8.5 8.5v32.9c0 4.8 3.8 8.6 8.5 8.6h32.9c4.7 0 8.5-3.8 8.5-8.5v-33c.1-4.7-3.7-8.5-8.4-8.5zm-2.5 17.3c-1.1 1.1-1.6 1.3-1.6 1.3-.3 9.2-6.4 18.5-17.3 19.1-4.1.3-7.9-1.4-10.8-3.8 1.1.3 2.2.5 3.3.5 2.2 0 4.3-.8 6.1-2.2 0 0-6.1-1.7-5.9-4.5l2.9-.1s-1.9-.6-2.9-1.5c-1.7-1.6-2.8-3.8-2.3-5 0 0 .3.3 1.2.6.8.3 1.7.3 1.7.3s-1.8-1.3-2.3-2.7c-.8-2.2-.4-5.1.4-5.9 0 0 .3 1.8 5.5 4.4 2.6 1.3 5.6 2.3 7.9 2.3-.2-.5-.3-1.6-.3-2.1 0-3.1 2.9-5.6 6.5-5.6 2 0 3.8.8 5 2l1.7-.8 2-.9s.1.1 0 .4c-.2.7-1.8 2.3-2.5 2.8v.1s.5 0 1.2-.2 2.3-.9 2.3-.9-.7 1.3-1.8 2.4z" fill="#5e45a4"/></svg>