<svg id="Camada_1" data-name="Camada 1" xmlns="http://www.w3.org/2000/svg" viewBox="0 0 49.9 50"><defs><style>.cls-1{fill:#fff;}</style></defs><path class="cls-1" d="M11.1,19.3A7.38,7.38,0,0,0,13.4,22a5.54,5.54,0,0,1-1.7-.3,3.28,3.28,0,0,1-1.2-.6c-.5,1.2.6,3.4,2.3,5a9.59,9.59,0,0,0,2.9,1.5l-2.9.1c-.2,2.8,5.9,4.5,5.9,4.5a9.92,9.92,0,0,1-6.1,2.2,12.57,12.57,0,0,1-3.3-.5,15.38,15.38,0,0,0,10.8,3.8c10.9-.6,17-9.9,17.3-19.1A6.1,6.1,0,0,0,39,17.3a11.47,11.47,0,0,0,1.8-2.4,22.31,22.31,0,0,1-2.3.9,4.83,4.83,0,0,1-1.2.2v-.1a9.36,9.36,0,0,0,2.5-2.8c.1-.3,0-.4,0-.4l-2,.9-1.7.8a7.1,7.1,0,0,0-5-2c-3.6,0-6.5,2.5-6.5,5.6a7.61,7.61,0,0,0,.3,2.1A19.53,19.53,0,0,1,17,17.8c-5.2-2.6-5.5-4.4-5.5-4.4C10.7,14.2,10.3,17.1,11.1,19.3ZM49.9,8.5v33A8.49,8.49,0,0,1,41.4,50H8.5A8.51,8.51,0,0,1,0,41.4V8.5A8.49,8.49,0,0,1,8.5,0h33A8.35,8.35,0,0,1,49.9,8.5Z"/></svg>