<svg id="Camada_1" data-name="Camada 1" xmlns="http://www.w3.org/2000/svg" viewBox="0 0 261.1 262.4"><defs><style>.cls-1{fill:#fff;}</style></defs><path class="cls-1" d="M69.2,331.2l18.4-67.4a128.58,128.58,0,0,1-17.3-65c0-71.7,58.4-130,130-130a129.91,129.91,0,0,1,130,130.1c0,71.7-58.4,130-130,130a130.63,130.63,0,0,1-62.2-15.8Zm72.1-41.6c18.3,10.9,35.8,17.4,58.9,17.4a108.1,108.1,0,1,0-108-108.1c0,24.3,7.1,42.5,19.1,61.6l-10.9,39.9C100.4,300.3,141.3,289.6,141.3,289.6Zm124.5-59.8c-.8-1.4-3-2.2-6.2-3.8s-19.2-9.5-22.2-10.6-5.1-1.6-7.3,1.6-8.4,10.6-10.3,12.7-3.8,2.4-7,.8-13.7-5.1-26.1-16.1c-9.7-8.6-16.2-19.3-18.1-22.5s-.2-5,1.4-6.6,3.2-3.8,4.9-5.7a20.1,20.1,0,0,0,3.3-5.4,6,6,0,0,0-.3-5.7c-.8-1.6-7.3-17.6-10-24.1-2.6-6.3-5.3-5.5-7.3-5.6l-6.2-.1a11.86,11.86,0,0,0-8.7,4.1c-3,3.3-11.4,11.1-11.4,27.1s11.6,31.4,13.3,33.6,22.9,35,55.5,49.1c7.8,3.3,13.8,5.3,18.5,6.8a44.85,44.85,0,0,0,20.5,1.3c6.2-.9,19.2-7.9,21.9-15.4S266.6,231.2,265.8,229.8Z" transform="translate(-69.2 -68.8)"/></svg>