<?xml version="1.0" encoding="utf-8"?>
<!-- Generator: Adobe Illustrator 21.0.2, SVG Export Plug-In . SVG Version: 6.00 Build 0)  -->
<svg version="1.1" id="Camada_1" xmlns="http://www.w3.org/2000/svg" xmlns:xlink="http://www.w3.org/1999/xlink" x="0px" y="0px"
	 viewBox="0 0 400 400" style="enable-background:new 0 0 400 400;" xml:space="preserve">
<style type="text/css">
	.st0{fill:#5E45A3;}
	.st1{fill:#FDFDFD;}
	.st2{fill:#EAE7F3;}
	.st3{fill:#421BAC;}
	.st4{fill:#FFFFFF;}
</style>
<g>
	<g>
		<path class="st0" d="M342,401c-94.7,0-189.3,0-284,0c-1.2-1.8-3.2-1.4-4.9-1.8c-21.9-5.7-37.4-18.9-46.5-39.4
			C4.3,354.4,2.9,348.6,1,343c0-95,0-190,0-285c1.8-1,1.4-2.9,1.7-4.4C10.1,26.2,27.6,9.3,55,2.5c1.7-0.4,3.7,0.4,5-1.5
			c94,0,188,0,282,0c0.2,0.7,0.8,0.9,1.5,1c33.8,6.4,54.6,30.3,56.7,65c-0.1,1.5-0.2,3-0.2,4.5c0,86,0,172.1,0,258.1
			c0,1.5,0.1,3,0.2,4.5c-1.6,28.2-14.9,48.8-40.5,61.2C354.1,397.9,347.8,398.6,342,401z M221.8,275.1c0-19.2,0.1-38.3-0.1-57.5
			c0-3.8,1-4.7,4.7-4.7c11,0.2,22,0,33,0.1c2.9,0,4.1-0.7,4.5-3.7c1.6-13.6,3.3-27.1,5.3-40.6c0.5-3.4-0.6-3.8-3.5-3.8
			c-13.3,0.1-26.7,0-40,0.1c-3,0-4.1-0.6-4-3.8c0.2-10.2,0-20.3,0.2-30.5c0.3-12.6,6.9-19.2,19.6-19.7c8.5-0.3,17-0.4,25.5-0.2
			c3.2,0,4.3-0.9,4.3-4.2c0-12,0.3-24,0.7-36c0.1-3.1-0.8-4-3.8-4.2c-14.3-0.6-28.5-1.9-42.9-0.7c-28.7,2.4-50.6,24.6-52.5,53.4
			c-0.9,13.8-0.6,27.6-0.7,41.5c0,3.4-0.8,4.6-4.4,4.5c-11.2-0.2-22.3,0-33.5-0.1c-2.6,0-3.9,0.5-3.9,3.5c0.1,13.7,0.1,27.3,0,41
			c0,2.9,1,3.6,3.8,3.6c10.8-0.1,21.7,0.2,32.5-0.2c4.4-0.1,5.5,0.9,5.5,5.4c-0.2,38-0.1,76-0.2,114c0,3.5,0.6,4.9,4.6,4.8
			c13.7-0.3,27.3-0.2,41,0c3.6,0.1,4.4-1.2,4.4-4.6C221.8,313.4,221.8,294.2,221.8,275.1z"/>
		<path class="st1" d="M342,401c5.8-2.4,12.1-3.1,17.7-5.8c25.6-12.4,38.9-32.9,40.5-61.2l0.4,0l0.4-0.1c0,21.3,0,42.7,0.1,64
			c0,2.5-0.6,3.1-3.1,3.1C379.3,400.9,360.7,401,342,401z"/>
		<path class="st1" d="M400.2,67c-2.1-34.7-22.9-58.5-56.7-65c-0.7-0.1-1.3-0.2-1.5-1c18.7,0,37.3,0.1,56-0.1c2.5,0,3.1,0.6,3.1,3.1
			C401,25,401,46,401,67C400.7,66.9,400.5,66.9,400.2,67z"/>
		<path class="st1" d="M60,1c-1.2,1.9-3.3,1.1-5,1.5C27.6,9.3,10.1,26.2,2.7,53.6C2.4,55.1,2.8,57,1,58C1,40,1.1,22,0.9,4
			c0-2.5,0.6-3.1,3.1-3.1C22.7,1.1,41.3,1,60,1z"/>
		<path class="st1" d="M1,343c1.9,5.6,3.3,11.4,5.6,16.7c9.1,20.6,24.6,33.8,46.5,39.4c1.6,0.4,3.7,0,4.9,1.8c-18,0-36-0.1-54,0.1
			c-2.5,0-3.1-0.6-3.1-3.1C1.1,379.7,1,361.3,1,343z"/>
		<path class="st2" d="M400.2,67c0.3,0,0.5,0,0.8,0c0,89,0,178,0,267l-0.4,0.1c0,0-0.4,0-0.4,0c-0.1-1.5-0.2-3-0.2-4.5
			c0-86,0-172.1,0-258.1C400,70,400.1,68.5,400.2,67z"/>
		<path class="st1" d="M221.8,275.1c0,19.2-0.1,38.3,0.1,57.5c0,3.4-0.7,4.6-4.4,4.6c-13.7-0.2-27.3-0.2-41,0
			c-3.9,0.1-4.6-1.3-4.6-4.8c0.1-38,0-76,0.2-114c0-4.5-1.1-5.6-5.5-5.4c-10.8,0.3-21.7,0-32.5,0.2c-2.8,0-3.8-0.7-3.8-3.6
			c0.1-13.7,0.1-27.3,0-41c0-3,1.2-3.5,3.9-3.5c11.2,0.1,22.3-0.1,33.5,0.1c3.6,0.1,4.4-1.1,4.4-4.5c0-13.8-0.3-27.6,0.7-41.5
			c2-28.8,23.8-51,52.5-53.4c14.4-1.2,28.6,0.2,42.9,0.7c3,0.1,3.9,1.1,3.8,4.2c-0.4,12-0.7,24-0.7,36c0,3.3-1.1,4.2-4.3,4.2
			c-8.5-0.1-17-0.1-25.5,0.2c-12.8,0.5-19.3,7.1-19.6,19.7c-0.2,10.2,0,20.3-0.2,30.5c-0.1,3.2,1.1,3.9,4,3.8
			c13.3-0.1,26.7,0,40-0.1c2.9,0,4,0.4,3.5,3.8c-2,13.5-3.7,27-5.3,40.6c-0.4,3.1-1.6,3.8-4.5,3.7c-11-0.2-22,0.1-33-0.1
			c-3.7-0.1-4.8,0.9-4.7,4.7C221.9,236.7,221.8,255.9,221.8,275.1z"/>
	</g>
</g>
<path class="st3" d="M53,36h249v328H53V36z"/>
<path class="st3" d="M332.2,0h-264c-37.6,0-68,30.4-68,68v263.2c0,38.4,30.4,68.8,68,68.8h263.2c37.6,0,68-30.4,68-68V68
	C400.2,30.4,369.8,0,332.2,0z M270.6,109.6H245c-20,0-24,9.6-24,23.2V164h48l-6.4,48H221v124h-49.6V212h-41.6v-48h41.6v-36
	c0-41.6,25.6-64,62.4-64c17.6,0,32.8,1.6,37.6,1.6L270.6,109.6z"/>
<path class="st4" d="M69.2,331.2l18.4-67.4c-11.4-19.7-17.4-42.1-17.3-65c0-71.7,58.4-130,130-130c34.8,0,67.4,13.6,92,38.1
	c24.5,24.6,38.1,57.2,38,92c0,71.7-58.4,130-130,130c-21.8,0-43.2-5.5-62.2-15.8C138.1,313.1,69.2,331.2,69.2,331.2z M141.3,289.6
	c18.3,10.9,35.8,17.4,58.9,17.4c59.6,0,108.1-48.5,108.1-108.1c0-59.7-48.3-108.1-108-108.1c-59.6,0-108.1,48.5-108.1,108.1
	c0,24.3,7.1,42.5,19.1,61.6l-10.9,39.9C100.4,300.3,141.3,289.6,141.3,289.6z M265.8,229.8c-0.8-1.4-3-2.2-6.2-3.8
	c-3.2-1.6-19.2-9.5-22.2-10.6c-3-1.1-5.1-1.6-7.3,1.6c-2.2,3.2-8.4,10.6-10.3,12.7c-1.9,2.2-3.8,2.4-7,0.8
	c-3.2-1.6-13.7-5.1-26.1-16.1c-9.7-8.6-16.2-19.3-18.1-22.5c-1.9-3.2-0.2-5,1.4-6.6c1.5-1.5,3.2-3.8,4.9-5.7
	c1.7-1.9,2.2-3.2,3.3-5.4c1.1-2.2,0.5-4.1-0.3-5.7c-0.8-1.6-7.3-17.6-10-24.1c-2.6-6.3-5.3-5.5-7.3-5.6l-6.2-0.1
	c-2.2,0-5.7,0.8-8.7,4.1c-3,3.3-11.4,11.1-11.4,27.1s11.6,31.4,13.3,33.6c1.6,2.2,22.9,35,55.5,49.1c7.8,3.3,13.8,5.3,18.5,6.8
	c7.8,2.5,14.9,2.1,20.5,1.3c6.2-0.9,19.2-7.9,21.9-15.4C266.6,237.7,266.6,231.2,265.8,229.8z"/>
</svg>
