<svg id="Camada_1" data-name="Camada 1" xmlns="http://www.w3.org/2000/svg" viewBox="0 0 49.9 50"><defs><style>.cls-1{fill:#fff;}</style></defs><path class="cls-1" d="M49.9,8.5v33A8.49,8.49,0,0,1,41.4,50H8.5A8.51,8.51,0,0,1,0,41.4V8.5A8.49,8.49,0,0,1,8.5,0h33A8.35,8.35,0,0,1,49.9,8.5Z"/><path class="cls-1" d="M7.55,41.28,10,32.77A15.77,15.77,0,0,1,7.7,24.56c0-9.06,7.65-16.42,17-16.42A17.25,17.25,0,0,1,36.79,13a16,16,0,0,1,5,11.62c0,9.06-7.65,16.42-17,16.42a17.67,17.67,0,0,1-8.16-2ZM17,36a14.68,14.68,0,0,0,7.72,2.19A13.93,13.93,0,0,0,38.89,24.57,13.9,13.9,0,0,0,24.74,10.92,13.93,13.93,0,0,0,10.57,24.57a13.44,13.44,0,0,0,2.5,7.78l-1.43,5Zm16.32-7.56c-.11-.17-.39-.28-.81-.48S30,26.79,29.6,26.65s-.67-.2-1,.21-1.1,1.33-1.35,1.6-.5.3-.92.1a11.83,11.83,0,0,1-3.42-2,12.68,12.68,0,0,1-2.37-2.84c-.25-.41,0-.64.18-.84s.42-.48.65-.72a2.69,2.69,0,0,0,.43-.68.75.75,0,0,0,0-.72c-.11-.2-1-2.22-1.31-3s-.7-.7-1-.71h-.81a1.59,1.59,0,0,0-1.14.51,4.57,4.57,0,0,0-1.49,3.43,7.78,7.78,0,0,0,1.74,4.24c.21.28,3,4.42,7.27,6.2,1,.42,1.81.67,2.43.86a6,6,0,0,0,2.68.17c.82-.12,2.52-1,2.87-2A3.5,3.5,0,0,0,33.32,28.47Z"/></svg>