<svg id="Camada_1" data-name="Camada 1" xmlns="http://www.w3.org/2000/svg" viewBox="0 0 49.9 50"><defs><style>.cls-1{fill:#339;}</style></defs><path class="cls-1" d="M41.5,0h-33A8.49,8.49,0,0,0,0,8.5v33A8.51,8.51,0,0,0,8.5,50H41.42a8.49,8.49,0,0,0,8.48-8.5V8.3A8.35,8.35,0,0,0,41.5,0ZM24.79,41a17.7,17.7,0,0,1-8.16-2L7.55,41.28,10,32.77a15.73,15.73,0,0,1-2.3-8.21c0-9.06,7.65-16.42,17-16.42A17.26,17.26,0,0,1,36.79,13a16,16,0,0,1,5,11.62C41.79,33.68,34.14,41,24.79,41Z" transform="translate(0 0)"/><path class="cls-1" d="M24.74,10.92h0A13.93,13.93,0,0,0,10.57,24.57a13.47,13.47,0,0,0,2.5,7.78l-1.43,5L17,36a14.71,14.71,0,0,0,7.72,2.19A13.93,13.93,0,0,0,38.89,24.57,13.9,13.9,0,0,0,24.74,10.92ZM33,30.46c-.35,1-2.05,1.88-2.87,2a5.93,5.93,0,0,1-2.68-.17,24.22,24.22,0,0,1-2.43-.86c-4.27-1.78-7.06-5.92-7.27-6.2A7.79,7.79,0,0,1,16.05,21a4.57,4.57,0,0,1,1.49-3.43,1.59,1.59,0,0,1,1.14-.51h.81c.3,0,.69-.07,1,.71s1.2,2.8,1.31,3a.77.77,0,0,1,0,.72,2.53,2.53,0,0,1-.43.68c-.23.24-.47.52-.65.72s-.43.43-.18.84a12.93,12.93,0,0,0,2.37,2.84,12,12,0,0,0,3.42,2c.42.2.67.17.92-.1s1-1.19,1.35-1.6.6-.35,1-.21,2.49,1.11,2.91,1.31.7.31.81.48v0A3.49,3.49,0,0,1,33,30.46Z" transform="translate(0 0)"/></svg>