<svg viewBox="0 0 428.08 428.11" xmlns="http://www.w3.org/2000/svg"><g transform="translate(-36.93 -36.94)"><path d="m464.83 152q0 32 0 64c-6.12 6.84-13.28 12.55-20.15 18.57a722 722 0 0 1 -62.48 49 781.28 781.28 0 0 1 -118.66 67.83 776.86 776.86 0 0 1 -106.06 39.72c-31.48 9.32-63.48 16.24-95.86 21.81-4.26.73-8.59 1-12.73 2.35-7.43-13-10.53-27.17-11-42-.92-4.17 2.6-3.7 4.67-4 10.7-1.61 21.29-3.86 32-5.57 5.27-.85 10.34-2.65 15.63-3.3 3.91-.47 5.3-2.52 5.28-6.36-.07-10.15-.17-20.31 0-30.47-.38-6.82-.24-13.65-.07-20.46 0-2-.39-4.55 2.66-5.13 2.09 2.4 1.57 5.34 1.58 8.12.05 20.83 0 41.66 0 62.49 0 7.61.15 7.73 7.89 7.75 10.5 0 21 .05 31.49 0 5.8 0 6.18-.42 6.2-6.33.06-14.5 0-29 0-43.49 0-2.49-.18-5 .65-7.42 1.13-2.46 3.41-2.38 5.56-2.39q23.24-.09 46.48 0c1.8 0 3.72-.14 5.08 1.86-1.73 2.44-4.38 1.9-6.74 1.91-13.66.07-27.32 0-41 0-5.57 0-5.86.34-5.91 6 0 4.33-.08 8.66 0 13 .09 4.64.53 5 5 3.75 13-3.69 25.72-8.18 38.34-12.95 21.9-8.29 43.41-17.29 64.32-27.6a728.41 728.41 0 0 0 104.87-62.9c11.49-8.28 22.61-17 33.79-25.72a2.57 2.57 0 0 0 1.42-2.32c-10.51-.88-21.11.34-31.64-.74-.94-.6-2.38-1-1.05-2.55 2-1.2 4.17-.87 6.29-.87h29.24c3.11.35 5.25-1.38 7.47-3.26 18.15-15.31 35.08-31.93 51.79-48.77 1.59-1.56 2.82-3.9 5.65-3.56z" fill="#21c15e"/><path d="m48.88 415.27c.91-3.71 4.45-2.68 6.6-3 14.22-2.16 28.29-5 42.39-7.87 14.77-3 29.38-6.53 43.93-10.4q30.73-8.18 60.6-19.12c13.68-5 27.38-10 40.73-15.8 24.51-10.71 48.51-22.44 72-35.37 16.3-9 32.17-18.64 47.79-28.72 16.57-10.69 32.52-22.31 48.08-34.43 15.82-12.33 31.19-25.18 45.94-38.79 2.36-2.17 4.64-4.75 7.94-5.76q0 19.5 0 39c-6.09 6.92-13.61 12.21-20.68 18a778.17 778.17 0 0 1 -89.42 62.89c-55.21 33.32-113.78 59.1-175.15 78.45a828 828 0 0 1 -80.28 20.58c-10.1 2.07-20.35 3.22-30.35 6.07-8.42-7.25-15.48-15.54-20.12-25.73z" fill="#22bd5e"/><path d="m69 441c.12-1.46 1.12-1.72 2.35-2.06 8.48-2.31 17.22-3.22 25.79-5 10.69-2.18 21.33-4.63 31.94-7.15a786.42 786.42 0 0 0 115.44-37.2 767.16 767.16 0 0 0 103-51.17 783.41 783.41 0 0 0 71.66-47.64c14.66-11.08 28.7-23 43-34.47a13.85 13.85 0 0 1 2.6-1.31q0 17 0 34c-3.86 5.63-9.87 8.85-15 12.93a777.3 777.3 0 0 1 -115.6 75.57 812.83 812.83 0 0 1 -122.08 53.15 861 861 0 0 1 -100.53 27.72 54.77 54.77 0 0 0 -6.71 1.95c-13.5-3.56-25.6-9.75-35.86-19.32z" fill="#23b85e"/><path d="m37.17 199v-27c1.52-1.82 3.73-2 5.83-2.5a572.91 572.91 0 0 0 105.13-36c44.15-19.93 84.42-45.83 121.82-76.43 7.57-6.2 14.49-13.11 21.79-19.6h5.95 39.5c3.81.25 2.47 2.47 1.27 4a68.51 68.51 0 0 1 -8.46 9.88c-14.68 13-28.56 26.94-43.93 39.24-16.67 13.34-34 25.63-51.92 37.25-17.06 11.08-35.3 20.05-52.84 30.28a3.81 3.81 0 0 1 -1.94.38c-8.92 0-17.83 0-24 0 13.76 1 30.16-1.38 46.63-.9 1.41.41 3.35.21 3 2.63-2.31 1.82-5.06 1.4-7.69 1.41-14 .06-28 0-42 0-6.12 0-6.44.44-6.57 6.54-.22 10 .48 20-.4 30a4.53 4.53 0 0 1 -.84 1.63 1.32 1.32 0 0 1 -1.65.18 4 4 0 0 1 -.87-1.45c-.22-10.82-1.19-21.67.57-32.47 0-.23.24-.53-.09-.74.12.27 0 .83.08.88.56.35-.38-.07-.09.56-.8 1.5-2.33 1.82-3.7 2.38a626.12 626.12 0 0 1 -94 29.6c-3.46.77-7.02 2.77-10.58.25z" fill="#31d269"/><path d="m291 38c-1.71 6.09-7.25 9-11.44 12.64a535 535 0 0 1 -63.24 47.46 548.12 548.12 0 0 1 -102.38 51.14 571.36 571.36 0 0 1 -68.51 21.08c-2.73.65-5.51 1.12-8.26 1.68l.08-36c.83-2.33 3-2.42 4.91-2.87 43.16-10.5 84-27.12 122.94-48.19a473.4 473.4 0 0 0 68.32-45.07c1.28-1 2.29-2.51 4.25-2.31h48.45c1.62-.02 3.32-.46 4.88.44z" fill="#34d56b"/><path d="m104.87 460.32c2.27-4.13 6.71-3.29 10.2-4q40.16-8.63 79.25-21.2a773.5 773.5 0 0 0 75.19-27.84 874.29 874.29 0 0 0 80.24-39.93 831.66 831.66 0 0 0 86.25-56.35c8.51-6.32 16.74-13 25.12-19.53 1.17-.91 2.5-1.62 3.76-2.42q0 13 0 26c-11.74 9.85-24.31 18.59-36.75 27.5-31.57 22.63-65 42.31-99.5 60a813.6 813.6 0 0 1 -90.05 39.29c-20.15 7.43-40.58 14-61.16 20-2.08.62-4 1.56-6 2.35-1.37.62-2.93-.08-4.29.61-20.24.38-40.49.93-60.41-3.77a11.66 11.66 0 0 1 -1.85-.71z" fill="#24b35e"/><path d="m236 38c-2 5.29-7.34 6.93-11.25 10a414.37 414.37 0 0 1 -53.75 35 544.38 544.38 0 0 1 -60.51 29.26c-23.27 9.32-47 17.33-71.46 22.9a10.05 10.05 0 0 0 -1.82.81c.47-13 1.51-25.83 6.75-38 1.32-2.21 3.56-2.84 5.83-3.48a473.88 473.88 0 0 0 81.71-32.02c13.83-6.89 27.44-14.32 40.16-23.21a8.41 8.41 0 0 1 5-1.78c19.31.06 38.61 0 57.92 0a2.41 2.41 0 0 1 1.42.52z" fill="#37d86d"/><path d="m171 464c4.55-4.83 11.12-4.92 16.81-6.62 22.75-6.79 45-14.85 67.17-23.32 21-8 41.37-17.25 61.53-27 19.26-9.3 37.92-19.81 56.43-30.56 29.74-17.27 57.64-37.21 85.28-57.57 2-1.5 3.37-4.38 6.6-3.94q0 10.5 0 21c-7.66 7.23-16.47 12.95-25 19a833.7 833.7 0 0 1 -129 74.94 786.42 786.42 0 0 1 -77.82 31.44c-3 1-5.57 3.09-8.9 3.13-16.1 0-32.18 0-48.26 0-1.59-.04-3.29.4-4.84-.5z" fill="#25b05e"/><path d="m226 464c2.08-3 5.52-3.27 8.6-4.42 23.64-8.78 47.16-17.85 70.11-28.38a828.08 828.08 0 0 0 104-56.76c17.54-11.32 34.93-22.95 51.29-36a10.06 10.06 0 0 1 4.81-2.45q0 12 0 24c-3.86 4.23-8.86 7-13.46 10.24a816.81 816.81 0 0 1 -94.82 58c-22.58 11.71-45.5 22.72-68.9 32.69-2 .86-3.59 1.51-1.69 3.89h-31.94c-7.54-.72-15.09-.1-22.64-.34-1.82-.06-3.66.47-5.36-.47z" fill="#26ac5e"/><path d="m236 38c-18 0-36 .08-53.93-.06-4.09 0-7.42.7-10.84 3.34-8.16 6.3-17.55 10.72-26.5 15.77-21.73 12.29-44.73 21.81-68.11 30.49-10.69 4-21.73 7-32.62 10.46 6.4-19.88 19.26-34.66 36.52-45.83s36.95-14.91 57.12-15c52.46-.37 104.92-.17 157.36-.17.66 0 1.32.11 2 .16q.5.28.33.55c-.11.18-.22.27-.33.27h-61z" fill="#3adb6e"/><path d="m464.83 152c-5.23 5.11-10.54 10.14-15.68 15.35-13.52 13.72-27.85 26.56-42.31 39.27a8.63 8.63 0 0 1 -4.84 2.38l-.43-.82c0-.31-.05-.61-.08-.92.33-15.54-.26-31.09.3-46.62 3-5 7.63-8.68 12-12.38 11.91-10.15 21.61-22.39 32.49-33.5 2.88-2.95 5.64-6.06 8.24-9.29 1.33-1.65 3.07-3.26 5.51-1.47 3.56 9.57 4.11 19.65 4.77 29.67.36 6.09.03 12.24.03 18.33z" fill="#24c460"/><path d="m145.89 198.87q.06.46.11.91c-2 2.38-4.82 1.82-7.38 1.87-12.72.24-25.45-.31-38.14.33-3.67 1.56-1.47 4.82-2.09 7.26a7 7 0 0 1 -.95 4 7.67 7.67 0 0 1 -3.85 2.16 473.55 473.55 0 0 1 -49.79 12.28c-2.24.43-4.6 1.2-6.64-.68q0-14 0-28c10.46-.86 20.37-4.25 30.46-6.78 24.79-6.21 48.85-14.64 72.56-24.1a31.75 31.75 0 0 1 4.82-1.12c1.1 7.5.17 15.05.5 22.57.14 3.1-.5 6.23.39 9.3z" fill="#30d068"/><path d="m381.08 38.69a77.75 77.75 0 0 1 32.11 9.21c-2.95 5.47-7.24 9.94-11.39 14.4-13.25 14.23-25.6 29.37-40.65 41.85-3.43 2.85-5.61 7-9.82 9.06-13.56.35-27.11.39-40.65 0-4.29-2.07-1.8-4.28.13-6 4.32-3.9 8.84-7.57 13.23-11.39a517 517 0 0 0 53.16-53.27c1.19-1.39 2.18-2.99 3.88-3.86z" fill="#2ccd65"/><path d="m381.08 38.69c-.78 4-4.16 6.4-6.61 9.11-19.39 21.42-39.83 41.78-62.47 59.83-1.41 1.12-3 2.26-3 4.36 3.72 1.11 7.54.4 11.3.49 24.59.55 49.14-1.62 73.73-.92 2.32.07 4.66-.24 6.94.5a3.76 3.76 0 0 1 2 2.08c.52 15.05 1.23 30.11-.36 45.15-.35 3.3-.05 6.63-.13 9.94-.29 12.91.6 25.83-.46 38.73a1.23 1.23 0 0 1 -1.65-.54c-1.41-2.64-1-5.52-1-8.33q-.05-37.72 0-75.45c0-8 0-8-8.11-8q-37.47 0-74.95 0c-7.34 0-7.49.15-7.5 7.6v76.45c0 2.78.5 5.72-1.51 8.15-3.68-.9-2.83-4-2.8-6.37.12-11.78.24-23.56.19-35.33 0-2.32.06-4.65-.11-7 .16-13.41.09-26.83.12-40.23.25-3.32-.84-3.19-3.21-1.48-9.7 7-18.8 14.79-28.78 21.39-12.75 8.41-25.38 17-38.72 24.49a21.25 21.25 0 0 1 -5.44 2.46c-5.33-.65-10.58-1.56-15.36-4.21-.65-3.83 2.75-4.6 4.9-5.94 11.29-7 22.76-13.74 33.9-21a552.85 552.85 0 0 0 65.56-50.4c10.18-9.06 20.3-18.17 29.85-27.91 5.12-5.22 9.65-11 14.85-16.14 1.17-1.16 2-2.68 3.94-2.76 2.37.2 4.78-.46 7.1.42 2.55.01 5.22-.09 7.79.86z" fill="#2ecf67"/><path d="m402.06 114.07-1.06-1.14a2 2 0 0 1 -.53-1.29c2-4.92 6.43-8 9.8-11.77 8.84-9.92 17.84-19.7 26.3-30 .82-1 1.59-2.22 3.23-1.86 7.26 6.27 11.75 14.49 15.72 23 1.94 4.13 4 8.31 4.5 13-2.53-.33-4 1.29-5.37 3-4.35 5.44-8.91 10.67-13.76 15.68q-6.05 6.25-12 12.62c-7.56 8.13-15.94 15.49-24 23.13-.42.4-1.23.39-1.86.58-1.07-5.89-.27-11.83-.48-17.75-.34-9.08.52-18.16-.49-27.2z" fill="#27c762"/><path d="m439.78 68c-12.31 15.23-25.78 29.42-38.78 44-8.73 1.08-17.49.41-26.24.43-7.25 0-14.53.64-21.76-.43 1.77-5 6-7.86 9.73-11 12-10.22 21.81-22.58 32.83-33.75 6.14-6.25 10.73-13.83 17.63-19.35a67.66 67.66 0 0 1 26.59 20.1z" fill="#2aca64"/><path d="m462.07 389.19c-1.56 8.37-3.42 16.65-7.94 24-6.38 2.22-11.41 6.71-17 10.2-22.26 13.87-44.92 27-68.19 39.14-.56.29-1.28.44-1.38 1a4.09 4.09 0 0 1 5.44.47c-5.51 1.44-11.14.9-16.72.94-7.12 0-14.24-.09-21.36-.15-2.83-.73-5.71-.08-8.56-.38-2.14-2.61.29-3.41 1.85-4.32 5-2.95 10.45-5.12 15.67-7.69a827.89 827.89 0 0 0 111.57-65.9c2-1.41 4.12-3.82 6.93-1.17.06 1.31.37 2.67-.31 3.86z" fill="#28a45e"/><path d="m97.94 298c-2 4.42-.62 9.07-.89 13.61-.25 4.12-.05 8.26-.05 12.39-1.62 1.62-3.76 2-5.86 2.53-15.84 3.72-31.8 6.81-47.85 9.45-2.13.35-4.31.75-6.12-1q0-18 0-36c1.44-1.6 3.41-2 5.39-2.32 15.94-2.67 31.7-6.12 47.38-10.05 4.25-1.06 5.62-3.13 5.56-7.28-.13-9.82-.17-19.65 0-29.48 0-3.08-.72-6.25 1.39-9a1.41 1.41 0 0 1 1.68.6c1.18 2 1.09 4.14 1.1 6.28q.06 21.63 0 43.26c0 2.45.33 5.01-1.73 7.01z" fill="#27c762"/><path d="m37.17 335c12.89-.94 25.38-4.15 38-6.58 7.29-1.42 14.56-2.94 21.83-4.42 0 10.64-.21 21.29.11 31.92.12 3.91-1.45 5.26-4.84 5.86-16.89 3-33.76 6.15-50.66 9.16-1.64.29-3.44 0-3.71 2.31-1.48-4.85-.81-9.84-.86-14.77-.04-7.83.07-15.65.13-23.48z" fill="#24c460"/><path d="m97 241q0 4.5 0 9c-1.41 1.85-3.5 2.41-5.6 3-15.44 4-31 7.65-46.63 10.7-2.56.5-5.23 1.46-7.59-.65v-36.05c7.83-.33 15.36-2.45 22.89-4.26 12.38-3 24.63-6.47 36.94-9.74a4 4 0 0 1 1.32 3.09c.19 7.26.2 14.52 0 21.78a4.77 4.77 0 0 1 -1.33 3.13z" fill="#2dcd66"/><path d="m37.17 263c10.77-.59 21-3.82 31.49-6 9.51-2 18.9-4.62 28.34-7q0 16.43 0 32.86c0 2.07 0 3.65-2.76 4.34-18.88 4.63-37.77 9.2-57.07 11.8q0-18 0-36z" fill="#2aca64"/><path d="m326 464c3 .38 6.09-.83 9 .81h-49c-1.13-1.43-3.27-.21-5.15-2.26 6.67-2.92 12.93-5.7 19.22-8.42 14.48-6.27 28.53-13.44 42.72-20.31 19-9.2 37.27-19.72 55.43-30.43 18.89-11.14 37-23.44 55-36 3.77-2.63 7-6.11 11.66-7.41 0 4.39.7 8.81-.77 13.11-16.16 10.88-31.91 22.36-48.57 32.5-33 20.12-66.85 38.8-102.32 54.36a17.08 17.08 0 0 0 -4.68 2.67c4.41.06 8.13 0 11.84 0 1.92.1 4-.22 5.62 1.38z" fill="#27a85e"/><path d="m326 464h-20.26c.53-2.88 2.87-3.34 4.65-4.13 12.61-5.59 25.07-11.48 37.36-17.74q40.83-20.81 79.52-45.38c10.73-6.85 20.91-14.63 31.48-21.75 1.44-1 2.7-3.78 5.32-1.85l-1.07 10.85a2.57 2.57 0 0 1 -1 1c-2-.34-3.49.91-4.94 2-17.32 12.87-35.62 24.28-54.16 35.2-18.84 11.1-38 21.78-57.83 31.08-5.82 2.73-11.66 5.52-17.42 8.43a2.67 2.67 0 0 0 -1.65 2.29z" fill="#27a85e"/><path d="m373 464h-6c-.35-2.26 1.34-2.63 2.53-3.26a889.69 889.69 0 0 0 79-46.38c1.46-1 3.21-3.44 5.59-1.14-10.32 21.78-27.2 36.34-49.52 44.78a90 90 0 0 1 -31.6 6z" fill="#299f5e"/><path d="m226 464h23.22c1.6 0 3.32-.47 4.73.79h-86.95c1.13-1.2 2.61-.69 4-.81z" fill="#25b05e"/><path d="m373.17 37.93-8.17.07a42.35 42.35 0 0 1 -26 0h-42q0-.41 0-.83 36.93 0 73.87.09a8.61 8.61 0 0 1 2.3.67z" fill="#34d56b"/><path d="m462 385 1-1c0 1.79.19 3.59-.89 5.18z" fill="#27a85e"/><path d="m97.94 298v-57c-1-10.56-.17-21.15-.43-31.72.49-3.05-1-6.28.82-9.22l47.67-.29 1.11.08a8.9 8.9 0 0 1 1 1.71c.81 9.08.27 18.19.34 27.28.11 12.91 0 25.82 0 38.73.09 6.62.42 7 7.08 7q18.6 0 37.19 0a41.59 41.59 0 0 0 22-5c8.26-4.41 13.58-11 15.14-20.33a25 25 0 0 1 1.08-3.83 41.73 41.73 0 0 0 .18-14.79 14.41 14.41 0 0 1 -.44-2.26c-2.47-13.76-11.56-21-24.26-24.8-17-3.44-34.22-1.33-51.33-1.92-2.79-.1-5.73.46-8.09-1.69-.09-12.29-.06-24.58-.32-36.87-.08-3.72 2.06-3.41 4.46-3.39q25.92.19 51.84.33c.66 0 1.32-.05 2-.08 2.93-1.64 5.53-.73 8 1l15.9 4.25c2.79-.65 5.22.55 7.61 1.64a76.74 76.74 0 0 1 21.24 14.45c8.27 7.91 13.37 17.75 17.35 28.3 2.13 6.73 3 13.7 4 20.66.58 14.79-.52 29.33-6.46 43.14a83.73 83.73 0 0 1 -10.62 17.77c-2.66 2.77-5.42 5.45-8.14 8.16a11.26 11.26 0 0 1 -1.53 1.23 14.56 14.56 0 0 0 -3 2.31 14 14 0 0 1 -4.13 3.13 41 41 0 0 0 -5.92 2.74c-.8.42-1.6.83-2.41 1.23-1.7.84-3.52 1.36-5.2 2.23a105.71 105.71 0 0 1 -25.34 5.95 6.16 6.16 0 0 1 -1.76.05 14.48 14.48 0 0 0 -4.39-.72q-25.32 0-50.64 0a3.59 3.59 0 0 0 -2.36.51c-.94 6.11-.34 12.26-.39 18.38-.12 12.64-.08 25.27 0 37.91 0 2.49-.22 4-3.39 4-14-.14-27.94-.17-41.9 0-3.74 0-3.35-2.08-3.35-4.47q0-35.17 0-70.34c-.02-1.8-.15-3.62-.21-5.45z" fill="#fefefe"/><path d="m236.79 308.89 2.14-1c2.32-.25 4.1-1.68 6.05-2.76l3.94-3.27a4.42 4.42 0 0 0 3-2.33l1-.75a20.86 20.86 0 0 0 7.87-7.84l10.32-16.94c4.47 2 7.77-.66 11.39-2.61 27.42-14.81 53.35-31.91 78.36-50.43 3.17-2.35 6.05-5.07 9.54-7.09-1.58-1.54-5.64.31-4.4-3.89h31c1.05 0 2.6-.71 3.1.68s-.67 2.53-1.71 3.33c-9.19 7.06-18.38 14.12-27.65 21.09a717.65 717.65 0 0 1 -66.39 43.92c-15.29 9-31.07 17.18-47 25a752.32 752.32 0 0 1 -77.56 32.44c-9 3.26-18.33 5.83-27.44 8.89-3.64 1.23-4.4-.25-4.35-3.49.11-6.16.21-12.33 0-18.48-.14-3.56 1.18-4.55 4.61-4.51 14.82.15 29.64.06 44.45.06h4.87v-1h-54.74c.88-1.14 2.13-.68 3.22-.68q27.79-.2 55.58-.34c1.25 1.12 2.81.08 4.13.68-1.07-.49-2.4.35-3.34-.75a175 175 0 0 0 25.18-6c1.88.04 3.65-.24 4.83-1.93z" fill="#24c460"/><path d="m366 210c1.22 4 5.12.66 7.54 2.87-6.08 4.67-11.93 9.43-18.05 13.81a734.46 734.46 0 0 1 -77 48.59c-3 1.63-5.47 2.35-7.41-1.25 5.54-14 7.07-28.67 6.78-43.6a8.36 8.36 0 0 1 -.37-3.45 2.12 2.12 0 0 1 .79-2c2.23.87 2 3 2.1 4.82.2 4.16 0 8.33.09 12.49.08 5.24.77 5.73 5.41 3 10.05-5.9 19.91-12.13 29.68-18.51a247.05 247.05 0 0 0 21.2-14.84c-10.53-1.22-20.29.56-30.53-1.35 1.78-3 3.77-3 5.67-3q23.74-.07 47.47 0c1.65 0 3.38-.09 4.6 1.39a2.12 2.12 0 0 0 2.03 1.03z" fill="#24c460"/><path d="m364 209h-55.82v1h28.12c1.08 0 2.58-.54 3.1.86s-.8 2.06-1.71 2.7c-17.27 12.1-34.87 23.7-53.2 34.13-5.32 3-5.47 2.77-5.48-3.34s0-12.16 0-18.94c-1.47 2-.76 3.58-1.11 5l-4.08-21c-.45-1 .15-1.56 1-1.78 10.08-2.58 17.23-10.21 26-15.06 2.48-1.37 2.7-4 2.7-6.54 0-7.28-.1-14.56.08-21.84 0-1.92-.68-4.48 2.37-5.15v43.83c0 1.73-.7 3.71 1.07 5.1 1.88-1.8 4.27-1.66 6.58-1.67q40.35-.07 80.7 0c2.31 0 4.7-.08 6.58 1.69h1v1z" fill="#27c762"/><path d="m99.4 379.16h46.23v.49h-46.45z" fill="#19bf58"/><path d="m213 161-8-1c-.76-1.09-1.93-.91-3-1-5.19-1.06-10.45-.19-15.66-.5-1.77-.11-3.61.47-5.31-.48.6-2.66 3-3.44 5-4.44a541 541 0 0 0 85.81-53.58c11.85-9 23.23-18.59 34.39-28.48 7.32-6.49 13.74-13.91 21.49-20a40.86 40.86 0 0 0 11.28-13.52h26c-2.77 6.08-8.23 10-12.56 14.69-9.59 10.37-19.87 20.15-30.44 29.53-12.26 10.89-24.84 21.42-37.95 31.32-10.19 7.7-20.73 14.88-31.23 22.13-12.95 8.95-27.28 15.72-39.82 25.33z" fill="#2fcf67"/><path d="m181 158h16.32c1.59 0 3.34-.52 4.65 1h-53.66v-1z" fill="#28cf62"/><path d="m145.89 198.87c-1.84-2.72-.77-5.76-.83-8.63-.17-7.74-.06-15.49-.06-23.24q0-2.89 0-5.77h.89z" fill="#27ce61"/><path d="m402.06 114.07c1.55 1.5.9 3.44.91 5.18.05 13.25 0 26.5 0 39.75v43.8c0 1.75.63 3.69-.95 5.18q-.02-46.98.04-93.91z" fill="#21c15e"/><path d="m97.94 209q0 16 0 32h-.94q0-14 0-28v-4q.47-.7.94 0z" fill="#2aca64"/><path d="m97.94 209h-.94c.56-3-1.29-6.28 1.33-8.93z" fill="#2dcd66"/><path d="m353 112h48q0 .47 0 .93h-91.42c-.46 0-1.21 0-1.33-.23-.35-.69.4-.58.77-.73z" fill="#23ca5e"/><path d="m401 208h-93.86c0-30.12 0-60.25-.21-90.37 0-3.15 1-3.88 4-3.87q43.19.16 86.38 0c2.44 0 4 .12 4 3.35-.31 30.29-.31 60.58-.31 90.89z" fill="#fefefe"/><path d="m256.95 182.12a80.66 80.66 0 0 0 -28-16.89c12.41-7.9 25-15.56 37.3-23.62 12.48-8.17 23.93-17.68 36-26.35.91-.65 1.51-2.17 2.78-1.74 1.68.57.74 2.28 1 3.49-1.12 9.39-.38 18.81-.4 28.21 0 3.68-1 6.06-4.08 8.3-12.68 9.36-25.81 18-39.07 26.52-1.73 1.09-3.42 2.15-5.53 2.08z" fill="#2ccd65"/><path d="m256.95 182.12c15-10.05 30.26-19.6 44.71-30.42 2.35-1.76 3.5-3.49 3.42-6.53-.22-7.81-.1-15.64-.05-23.46 0-1.6-.53-3.37 1-4.69q0 21 0 42c-1.48 1.32-.95 3.09-1 4.69 0 7.65-.28 15.31.08 22.94.18 3.9-1.28 6.09-4.41 8-6.63 4.08-13.2 8.29-19.58 12.75-2.34 1.64-5 .87-7.3 2-4.01-10.11-9.2-19.46-16.87-27.28z" fill="#2aca64"/><path d="m208.29 202.9a30.68 30.68 0 0 1 23.59 25.1c1.28 6.68-2.63 9.61-8 12.16-23 10.86-46.14 21.32-70.28 29.45-1.94.65-4 2-6 0a21.72 21.72 0 0 1 -.08-2.57q0-17.32 0-34.62c.08-3 2.66-3 4.55-3.73 16-5.86 31.64-12.66 47.09-19.87 2.77-1.29 6-2.17 6.95-5.8.22-.8 1.4-.46 2.18-.12z" fill="#2aca64"/><path d="m148 270a451.45 451.45 0 0 0 49.86-19.42q11.73-5.39 23.49-10.74c5.23-2.4 10.8-4.5 10.53-11.81l.22 1.65a72.51 72.51 0 0 1 0 16.59c-5.63 20.6-17.89 30.18-38.09 29.73-6.93-1.16-13.9-.32-20.85-.48s-14 0-21 0c-4.99-.05-4.99-.08-4.16-5.52z" fill="#27c762"/><path d="m208.29 202.9c-1.62 5.2-6.51 6.32-10.62 8.19-15.06 6.85-30.13 13.73-45.83 19.06a34.69 34.69 0 0 1 -3.84.85c-1.07-7.2-.18-14.45-.51-21.67-.13-2.77.51-5.59-.46-8.32q0-.57.07-1.15l-.09.08c14.42 0 28.85 0 43.27.13 6.14.05 12.24.38 18.01 2.83z" fill="#2dcd66"/><path d="m147 201c1.94 2.7.84 5.77.91 8.65.18 7.11.06 14.23.06 21.34q0 18.5 0 37c-.33.48-.66.45-1 0q-.56-33.48.03-66.99z" fill="#27c762"/><path d="m147 268h1v2c-.58 3.85.9 5.18 4.93 5.09 12-.26 23.93-.12 35.89-.07 1.75 0 3.7-.63 5.18 1-14.79.11-29.59.2-44.38.37-2.17 0-3-.76-2.84-2.9.16-1.84.16-3.67.22-5.49z" fill="#1cc55a"/><path d="m260.75 290.89a10.61 10.61 0 0 1 -7.87 7.84z" fill="#21c15e"/><path d="m232.09 246.27q0-8.29 0-16.59a32.45 32.45 0 0 1 0 16.59z" fill="#2aca64"/><g fill="#21c15e"><path d="m245 305.09c-1.56 1.92-3.29 3.47-6.05 2.76 1.85-1.25 3.54-2.85 6.05-2.76z"/><path d="m236.79 308.89c-.91 2.34-2.39 3.31-4.82 2a11.23 11.23 0 0 1 4.82-2z"/><path d="m206.78 316.9 4.15.34c-1.74.77-3.45 1.29-4.94-.26a.6.6 0 0 1 .79-.08z"/><path d="m251.88 299.48c-.43 1.48-.7 3.17-3 2.33z"/></g><path d="m322.86 129.93c.79-1.27 2.07-.81 3.16-.81 18.76 0 37.52 0 56.28-.08 2.86 0 3.66.9 3.64 3.69-.1 18.92 0 37.85-.06 56.78 0 .94.28 2-.84 2.64-2-1.86-1.44-4.32-1.46-6.59-.09-15 0-30-.09-44.94a13 13 0 0 1 .08-4.46c1-5.67 1-5.67-4.51-5.67q-17.79 0-35.59 0c-.67 0 .32 1 0 .46-.09-.16 0-.27.38-.28 12.6-.28 25.2 0 37.8-.13 2.12 0 3.16.77 2.68 3-.7 3.22-9.63 10.35-13.26 10.61-6.57-1.35-13.22-.32-19.83-.59-3.71-.15-7.43 0-9.88 0 8.94.2 19.14-.26 29.34.26a5.93 5.93 0 0 1 1.22 1.45 194.71 194.71 0 0 1 0 31.76c-1.16 2.32-3.37 2.55-5.54 2.6-8.15.19-16.3.23-24.44 0-5-.14-5.54-1-5.47-5.94q.19-13.35-.22-26.69c-.43-.64-1 .25-.41-.08.22-.12.37 0 .39.31.57 8.78.38 17.57.13 26.34-.12 4.24-7.92 8.59-12.65 7.61-1.11-1.84-.67-3.88-.69-5.84-.12-15.19.16-30.34-.16-45.41z" fill="#29ca63"/><path d="m322.86 129.93c1.74 1.41 1.1 3.38 1.11 5.12v45.94a5.43 5.43 0 0 1 1.06 1.68c2.21 6.63 2.2 6.64 9 6.65q20.2 0 40.39 0c7.89 0 7.9 0 7.91-8.15 0-11.64-.08-23.27.08-34.9 0-2.26-.69-5.12 2.54-6.2q.05 26 .1 52.07c-3.59 1-7.25.43-10.88.45-15.81.08-31.61 0-47.42 0-2 0-4.47.71-4.45-2.9.11-19.63.09-39.26.14-58.89.01-.28.28-.57.42-.87z" fill="#1ec65c"/><path d="m384.94 140.08c-1.57 1.51-.9 3.45-.91 5.2-.06 13.47-.17 26.94.05 40.4.07 4-1 5.47-5.25 5.41-16.29-.23-32.59-.28-48.88 0-4.84.09-6.71-1.36-6-6.13a27 27 0 0 0 0-4c7.56-1.59 12-6.72 12-13.87q0-10.21.07-20.42c0-.14.17-.27.92-1.38v26.26c0 6.42 0 6.42 6.53 6.42h22.42c1.75 0 3.71.61 5.13-1.08a244.59 244.59 0 0 0 0-31.77l-.02-1.12c5-2.19 7.78-7.09 12-10.2a1.91 1.91 0 0 0 .6-1.68c-.51-1.42-1.89-1.1-3-1.1q-15.22 0-30.45 0a27.4 27.4 0 0 1 -8.92-1h16.37c7.15 0 14.33.31 21.46-.11 5-.29 6.63 1.5 5.92 6.19a29.71 29.71 0 0 0 -.04 3.98z" fill="#27c762"/><path d="m354.44 177.09c-4.49 0-9-.1-13.46 0-2.4.08-3.15-.78-3.12-3.14.11-8.81.08-17.62 0-26.43 0-2.12.72-2.94 2.88-2.92q13.22.11 26.43 0c2.36 0 3.19.83 3.17 3.18q-.14 13.22 0 26.43c0 2.17-.79 2.92-2.92 2.87-4.34-.08-8.66.01-12.98.01z" fill="#fdfefe"/><path d="m371 144h-31.84c10.61-.28 21.25-2.33 31.83 0z" fill="#1fc85c"/><path d="m371.11 145.13c2 6.63.6 13.42.78 20.12.1 3.86 1.14 7.9-.82 11.65q.03-15.9.04-31.77z" fill="#1ec55c"/></g></svg>