<svg viewBox="0 0 513.6 513.6" xmlns="http://www.w3.org/2000/svg"><path d="m0 0h513.6v513.6h-513.6z" fill="#46b868"/><g transform="translate(6.8 6.8)"><path d="m396.08 381.43a2.39 2.39 0 0 1 -1.4-.6q-25.29-14.92-50.58-29.83a5.06 5.06 0 0 0 -2.7-.74q-92.88 0-185.77 0a41.17 41.17 0 0 1 -40.82-35.66 46.43 46.43 0 0 1 -.37-6.18q0-74 0-148c0-20.07 13-36.42 32.51-40.89a40.21 40.21 0 0 1 9-.92q99.3 0 198.59 0a41.15 41.15 0 0 1 41.14 35.48 44.31 44.31 0 0 1 .4 6.61q0 109.67 0 219.34z" fill="#fff"/><path d="m256.33 260.48a32.28 32.28 0 0 1 4.17.23 1.45 1.45 0 0 0 1.78-.92q11.26-19.68 22.57-39.34 6.92-12 13.86-24.08a1.94 1.94 0 0 0 0-2.21 26.05 26.05 0 0 1 17.29-38.05c14.52-3.3 29.31 7.14 31.1 22 1.76 14.62-7.78 27.25-22.34 29.32a4.25 4.25 0 0 0 -3.54 2.46q-18.12 31.68-36.35 63.29a2.3 2.3 0 0 0 .05 2.81 33.47 33.47 0 1 1 -61 24.29 33.27 33.27 0 0 1 5.12-24.87 1.64 1.64 0 0 0 .1-2q-18.55-32.41-37.14-64.74a1.82 1.82 0 0 0 -1.62-1.13 26.06 26.06 0 0 1 -3.4-51.4c14.77-3.4 29.68 7.33 31.27 22.4a26.22 26.22 0 0 1 -3.1 15.69 1.85 1.85 0 0 0 .05 2.09q18.24 31.69 36.42 63.42a1.48 1.48 0 0 0 1.79.93 17.17 17.17 0 0 1 2.87 0z" fill="#46b868"/></g></svg>