<svg height="161.944" viewBox="0 0 206.889 161.944" width="206.889" xmlns="http://www.w3.org/2000/svg"><g fill="#fff"><path d="m277.472 286.64-.122-.211a34.482 34.482 0 0 0 -46.138-12.937l-25.7 13.343c.107 1.11.209 2.331.209 2.906a27.2 27.2 0 0 1 -13.381 23.177 23.352 23.352 0 0 1 -11.747 3.178 26.058 26.058 0 0 1 -13.045-3.654q-.111-.064-.22-.133l-22.069-14.021a6.054 6.054 0 0 1 6.493-10.219l21.954 13.948c5.534 3.149 9.893 1.969 12.582.416a15.137 15.137 0 0 0 6.86-9.178h-.008c1-5.393-.887-11.255-7.208-14.9l-24.98-14.421a14.631 14.631 0 0 0 -8.629-2.812h-33.3v57.194h3.863l47.941 27.735a18.248 18.248 0 0 0 9.123 2.608 14.887 14.887 0 0 0 8-2.306l88.517-55.635a3.027 3.027 0 0 0 1.01-4.078z" transform="translate(-70.989 -186.714)"/><path d="m29.872 214.948h-23.819a6.054 6.054 0 0 0 -6.053 6.052v84.3a6.054 6.054 0 0 0 6.053 6.053h23.819a6.054 6.054 0 0 0 6.053-6.053v-84.3a6.053 6.053 0 0 0 -6.053-6.053z" transform="translate(0 -159.175)"/><path d="m260.437 118.74c8.043 0 20.453-9.121 29.185-18.16 7.091-7.341 18.988-22.02 18.988-37.839a28.143 28.143 0 0 0 -48.173-19.741 28.143 28.143 0 0 0 -48.172 19.745c0 14.569 11.86 29.385 18.93 36.921 8.256 8.8 20.869 19.078 29.243 19.078z" transform="translate(-126.602 -34.623)"/></g></svg>