<svg width="64" height="64" viewBox="0 0 64 64" fill="none" xmlns="http://www.w3.org/2000/svg">
<path d="M14.3999 7.2C14.3999 6.35131 14.737 5.53737 15.3372 4.93726C15.9373 4.33714 16.7512 4 17.5999 4H46.3999C47.2486 4 48.0625 4.33714 48.6626 4.93726C49.2628 5.53737 49.5999 6.35131 49.5999 7.2V56.8C49.5999 57.6487 49.2628 58.4626 48.6626 59.0627C48.0625 59.6629 47.2486 60 46.3999 60H17.5999C16.7512 60 15.9373 59.6629 15.3372 59.0627C14.737 58.4626 14.3999 57.6487 14.3999 56.8V7.2Z" fill="#F4F4F4"/>
<path d="M20.8 18.4C21.6836 18.4 22.4 17.6837 22.4 16.8C22.4 15.9163 21.6836 15.2 20.8 15.2C19.9163 15.2 19.2 15.9163 19.2 16.8C19.2 17.6837 19.9163 18.4 20.8 18.4Z" fill="#5E42A6"/>
<path d="M25.6 18.4C26.4837 18.4 27.2 17.6837 27.2 16.8C27.2 15.9163 26.4837 15.2 25.6 15.2C24.7163 15.2 24 15.9163 24 16.8C24 17.6837 24.7163 18.4 25.6 18.4Z" fill="#5E42A6"/>
<path d="M30.4 18.4C31.2837 18.4 32 17.6837 32 16.8C32 15.9163 31.2837 15.2 30.4 15.2C29.5164 15.2 28.8 15.9163 28.8 16.8C28.8 17.6837 29.5164 18.4 30.4 18.4Z" fill="#5E42A6"/>
<path fill-rule="evenodd" clip-rule="evenodd" d="M19.8 24.8C19.8 24.2477 20.2478 23.8 20.8 23.8H43.2001C43.7523 23.8 44.2001 24.2477 44.2001 24.8C44.2001 25.3523 43.7523 25.8 43.2001 25.8H20.8C20.2478 25.8 19.8 25.3523 19.8 24.8Z" fill="#5E42A6"/>
<path fill-rule="evenodd" clip-rule="evenodd" d="M19.8 32.8C19.8 32.2477 20.2478 31.8 20.8 31.8H35.2001C35.7523 31.8 36.2001 32.2477 36.2001 32.8C36.2001 33.3523 35.7523 33.8 35.2001 33.8H20.8C20.2478 33.8 19.8 33.3523 19.8 32.8Z" fill="#5E42A6"/>
<path fill-rule="evenodd" clip-rule="evenodd" d="M19.8 40.8C19.8 40.2477 20.2478 39.8 20.8 39.8H32.8C33.3523 39.8 33.8 40.2477 33.8 40.8C33.8 41.3523 33.3523 41.8 32.8 41.8H20.8C20.2478 41.8 19.8 41.3523 19.8 40.8Z" fill="#5E42A6"/>
<path fill-rule="evenodd" clip-rule="evenodd" d="M19.8 48.8C19.8 48.2477 20.2478 47.8 20.8 47.8H30.4C30.9523 47.8 31.4 48.2477 31.4 48.8C31.4 49.3523 30.9523 49.8 30.4 49.8H20.8C20.2478 49.8 19.8 49.3523 19.8 48.8Z" fill="#5E42A6"/>
<path d="M49.5999 26.4V7.2C49.5999 6.35131 49.2628 5.53737 48.6626 4.93726C48.0625 4.33714 47.2486 4 46.3999 4H17.5999C16.7512 4 15.9373 4.33714 15.3372 4.93726C14.737 5.53737 14.3999 6.35131 14.3999 7.2V56.8C14.3999 57.6487 14.737 58.4626 15.3372 59.0627C15.9373 59.6629 16.7512 60 17.5999 60H46.3999C47.2486 60 48.0625 59.6629 48.6626 59.0627C49.2628 58.4626 49.5999 57.6487 49.5999 56.8V53.6" stroke="#5E42A6" stroke-width="2" stroke-miterlimit="10" stroke-linecap="round"/>
<path d="M49.6 48.8C54.4602 48.8 58.4001 44.8601 58.4001 40C58.4001 35.1399 54.4602 31.2 49.6 31.2C44.7399 31.2 40.8 35.1399 40.8 40C40.8 44.8601 44.7399 48.8 49.6 48.8Z" fill="#81C4F7" stroke="#5E42A6" stroke-width="2" stroke-miterlimit="10" stroke-linecap="round"/>
<path d="M45.6001 39.2L48.8001 42.4L53.6001 37.6" stroke="#5E42A6" stroke-width="2" stroke-linecap="round" stroke-linejoin="round"/>
</svg>
