<svg width="160" height="160" viewBox="0 0 160 160" fill="none" xmlns="http://www.w3.org/2000/svg">
<g opacity="0.3">
<path opacity="0.3" d="M157.737 59.6125C156.623 52.0233 153.208 44.9583 147.953 39.3705C142.699 33.7826 135.856 29.9405 128.35 28.3625C123.014 27.2231 118.208 24.3431 114.687 20.175C109.141 13.6118 101.875 8.72365 93.7061 6.05872C85.5367 3.39378 76.7864 3.05746 68.4366 5.08749C60.0868 7.11751 52.4676 11.4336 46.4336 17.5517C40.3996 23.6698 36.1893 31.3479 34.275 39.725C33.4601 43.2614 31.8685 46.5722 29.6157 49.4174C27.3629 52.2626 24.5053 54.5709 21.25 56.175C16.2753 58.6582 11.9637 62.2908 8.6724 66.772C5.38111 71.2532 3.20477 76.4541 2.32365 81.9439C1.44252 87.4336 1.88196 93.0544 3.60557 98.3405C5.32918 103.627 8.28735 108.426 12.2351 112.341C16.1829 116.257 21.0066 119.175 26.3068 120.855C31.607 122.535 37.2311 122.928 42.7134 122.001C48.1957 121.075 53.3784 118.855 57.8323 115.527C62.2861 112.199 65.883 107.858 68.325 102.863C69.2952 100.87 70.8084 99.1925 72.6904 98.0226C74.5724 96.8527 76.7465 96.2383 78.9625 96.25H80C83.5099 96.2793 86.9057 97.5 89.631 99.712C92.3563 101.924 94.2494 104.996 95 108.425C95.8257 111.817 97.3528 114.999 99.483 117.765C101.613 120.532 104.299 122.821 107.368 124.486C110.437 126.151 113.82 127.155 117.301 127.433C120.781 127.711 124.281 127.257 127.575 126.1C132.276 124.466 136.383 121.467 139.37 117.485C142.356 113.503 144.086 108.721 144.337 103.75C144.556 98.137 146.537 92.7354 150 88.3125C153.184 84.3119 155.513 79.7009 156.844 74.7645C158.174 69.8281 158.479 64.6712 157.737 59.6125Z" fill="#97C1FF"/>
<path opacity="0.3" d="M55.9251 29.3625C56.2363 25.9813 55.318 22.6013 53.3386 19.8424C51.3593 17.0835 48.4516 15.1308 45.149 14.3423C41.8463 13.5539 38.3701 13.9826 35.358 15.5499C32.3458 17.1172 29.9998 19.7179 28.7501 22.875C27.6468 21.968 26.3076 21.3949 24.8898 21.223C23.472 21.0511 22.0346 21.2876 20.7466 21.9047C19.4586 22.5218 18.3735 23.4938 17.6191 24.7064C16.8646 25.9191 16.472 27.3219 16.4876 28.75C16.4876 28.9625 16.4876 29.175 16.4876 29.3875C13.9803 30.2695 11.8662 32.0107 10.5202 34.3025C9.1741 36.5943 8.68293 39.2887 9.13372 41.9081C9.58451 44.5275 10.9481 46.9027 12.9829 48.6126C15.0177 50.3226 17.5922 51.2569 20.2501 51.25H52.2501C54.9067 51.2447 57.4758 50.2994 59.5023 48.5815C61.5288 46.8635 62.8819 44.4839 63.3221 41.8639C63.7623 39.244 63.261 36.5528 61.9071 34.2669C60.5533 31.9811 58.4342 30.2482 55.9251 29.375V29.3625Z" fill="#EEF6FF"/>
<g opacity="0.3">
<path opacity="0.3" d="M52.2498 47.5H20.2498C17.5799 47.5096 14.9935 46.5694 12.9531 44.8473C10.9128 43.1252 9.55135 40.7336 9.11231 38.1C8.83492 39.7187 8.91531 41.3786 9.34785 42.9629C9.78038 44.5473 10.5546 46.0177 11.616 47.271C12.6774 48.5242 14.0004 49.5299 15.492 50.2173C16.9835 50.9047 18.6075 51.2572 20.2498 51.25H52.2498C53.8921 51.2572 55.5161 50.9047 57.0077 50.2173C58.4992 49.5299 59.8222 48.5242 60.8836 47.271C61.9451 46.0177 62.7192 44.5473 63.1518 42.9629C63.5843 41.3786 63.6647 39.7187 63.3873 38.1C62.9483 40.7336 61.5869 43.1252 59.5465 44.8473C57.5061 46.5694 54.9198 47.5096 52.2498 47.5Z" fill="#5CBEFF"/>
</g>
<path opacity="0.3" d="M16.5123 33.1375C16.5123 32.925 16.5123 32.7125 16.5123 32.5C16.5008 31.0764 16.8947 29.6789 17.6479 28.4708C18.4012 27.2628 19.4827 26.2941 20.7662 25.6779C22.0496 25.0618 23.4819 24.8236 24.8956 24.9914C26.3094 25.1591 27.6462 25.7257 28.7498 26.625C29.9427 23.389 32.2802 20.7024 35.3201 19.0735C38.3601 17.4446 41.8916 16.9863 45.2466 17.7854C48.6017 18.5845 51.5474 20.5856 53.5267 23.41C55.5059 26.2344 56.3814 29.6862 55.9874 33.1125C57.9103 33.7592 59.6225 34.9139 60.9428 36.4542C62.2631 37.9946 63.1423 39.8633 63.4874 41.8625C63.9482 39.2255 63.4438 36.5106 62.0664 34.2151C60.6891 31.9195 58.531 30.1969 55.9874 29.3625C56.3552 25.9478 55.4652 22.5161 53.4842 19.7106C51.5031 16.905 48.5669 14.9182 45.2259 14.1224C41.8849 13.3266 38.3683 13.7766 35.3353 15.3878C32.3022 16.9991 29.9608 19.6611 28.7498 22.875C27.6466 21.968 26.3074 21.3949 24.8896 21.223C23.4718 21.0511 22.0343 21.2876 20.7464 21.9047C19.4584 22.5218 18.3733 23.4938 17.6189 24.7064C16.8644 25.9191 16.4718 27.3219 16.4873 28.75C16.4873 28.9625 16.4873 29.175 16.4873 29.3875C13.9607 30.2386 11.8238 31.9688 10.4656 34.2631C9.10743 36.5573 8.61832 39.263 9.08734 41.8875C9.42584 39.8969 10.2938 38.0342 11.6003 36.4946C12.9067 34.955 14.6034 33.7955 16.5123 33.1375Z" fill="white"/>
<path opacity="0.3" d="M52.25 52.5H20.25C17.3808 52.4967 14.6002 51.5064 12.3748 49.6954C10.1495 47.8845 8.61481 45.3631 8.02847 42.5546C7.44214 39.746 7.83981 36.8212 9.15475 34.2712C10.4697 31.7211 12.6218 29.7011 15.25 28.55C15.2845 27.0532 15.7026 25.5903 16.4642 24.3013C17.2257 23.0122 18.3053 21.9401 19.5997 21.1876C20.8941 20.4351 22.3599 20.0272 23.8569 20.0032C25.3539 19.9791 26.8321 20.3395 28.15 21.05C29.6924 17.953 32.2343 15.4667 35.3648 13.9932C38.4952 12.5198 42.0311 12.1452 45.4008 12.9302C48.7704 13.7151 51.7768 15.6137 53.9339 18.3189C56.0909 21.024 57.2724 24.3777 57.2875 27.8375C57.2875 28.0792 57.2875 28.3209 57.2875 28.5625C59.911 29.7193 62.057 31.7429 63.3659 34.2939C64.6748 36.845 65.0668 39.7684 64.4764 42.5742C63.8859 45.38 62.3488 47.8975 60.1228 49.7046C57.8968 51.5118 55.1172 52.4987 52.25 52.5ZM24.0125 22.5C22.3549 22.5 20.7651 23.1585 19.593 24.3306C18.4209 25.5027 17.7625 27.0924 17.7625 28.75C17.7625 28.925 17.7625 29.1125 17.7625 29.2875C17.7775 29.5586 17.7039 29.8271 17.5528 30.0527C17.4018 30.2782 17.1814 30.4484 16.925 30.5375C14.6766 31.3057 12.7752 32.8494 11.5614 34.8919C10.3476 36.9344 9.90078 39.3424 10.3009 41.6845C10.701 44.0265 11.922 46.1496 13.745 47.6733C15.5681 49.197 17.8741 50.0219 20.25 50H52.25C54.6139 49.9981 56.9007 49.1588 58.7047 47.631C60.5086 46.1032 61.7129 43.9857 62.104 41.6543C62.495 39.3229 62.0475 36.9284 60.8409 34.8956C59.6342 32.8628 57.7464 31.3232 55.5125 30.55C55.2427 30.4578 55.0125 30.2761 54.8602 30.0351C54.7079 29.7941 54.6425 29.5083 54.675 29.225C54.7308 28.752 54.76 28.2763 54.7625 27.8C54.7439 24.795 53.6747 21.8911 51.7402 19.5914C49.8057 17.2918 47.1277 15.7413 44.1702 15.2086C41.2126 14.6758 38.1619 15.1944 35.5466 16.6745C32.9312 18.1545 30.9159 20.5028 29.85 23.3125C29.7806 23.4972 29.6685 23.6629 29.5229 23.796C29.3772 23.929 29.2021 24.0257 29.0119 24.0781C28.8217 24.1306 28.6218 24.1372 28.4286 24.0976C28.2353 24.0579 28.0541 23.9731 27.9 23.85C26.7937 22.9741 25.4235 22.4983 24.0125 22.5Z" fill="#6D6DAA"/>
<path opacity="0.3" d="M52.25 28.75C53.5263 28.7456 54.7941 28.9569 56 29.375L52.25 28.75Z" fill="#EEF6FF"/>
<path opacity="0.3" d="M55.9625 30.6125C55.8225 30.6149 55.683 30.5938 55.55 30.55C54.4882 30.1845 53.3729 29.9986 52.25 30C51.9185 30 51.6005 29.8683 51.3661 29.6339C51.1317 29.3995 51 29.0815 51 28.75C51 28.4185 51.1317 28.1005 51.3661 27.8661C51.6005 27.6317 51.9185 27.5 52.25 27.5C53.6495 27.4987 55.0395 27.7311 56.3625 28.1875C56.6469 28.2808 56.8883 28.473 57.043 28.7293C57.1976 28.9855 57.2552 29.2887 57.2053 29.5838C57.1554 29.8789 57.0012 30.1463 56.7708 30.3373C56.5405 30.5284 56.2492 30.6305 55.95 30.625L55.9625 30.6125Z" fill="#6D6DAA"/>
<path opacity="0.3" d="M16.5125 29.375C17.7183 28.9569 18.9862 28.7456 20.2625 28.75L16.5125 29.375Z" fill="#EEF6FF"/>
<path opacity="0.3" d="M16.5124 30.625C16.2196 30.6218 15.9372 30.5159 15.7145 30.3258C15.4918 30.1356 15.3429 29.8734 15.2938 29.5847C15.2447 29.296 15.2985 28.9993 15.4458 28.7462C15.5931 28.4932 15.8246 28.2999 16.0999 28.2C17.4341 27.7352 18.837 27.4986 20.2499 27.5C20.5814 27.5 20.8993 27.6317 21.1337 27.8661C21.3682 28.1005 21.4999 28.4185 21.4999 28.75C21.4999 29.0815 21.3682 29.3995 21.1337 29.6339C20.8993 29.8683 20.5814 30 20.2499 30C19.1177 29.9979 17.9934 30.1881 16.9249 30.5625C16.7918 30.6063 16.6524 30.6274 16.5124 30.625Z" fill="#6D6DAA"/>
<path opacity="0.3" d="M28.6375 22.825C29.4944 23.4994 30.194 24.3526 30.6875 25.325L28.6375 22.825Z" fill="#EEF6FF"/>
<path opacity="0.3" d="M30.6873 26.525C30.4578 26.5255 30.2326 26.4627 30.0363 26.3437C29.8401 26.2246 29.6804 26.0538 29.5748 25.85C29.1544 25.0575 28.5707 24.3631 27.8623 23.8125C27.6004 23.6086 27.4303 23.309 27.3892 22.9797C27.3482 22.6503 27.4397 22.3181 27.6436 22.0562C27.8475 21.7943 28.1471 21.6242 28.4764 21.5831C28.8058 21.5421 29.1379 21.6336 29.3998 21.8375C30.3885 22.6077 31.2023 23.5792 31.7873 24.6875C31.8857 24.8773 31.9337 25.0891 31.9268 25.3028C31.9199 25.5164 31.8584 25.7247 31.748 25.9078C31.6377 26.0909 31.4822 26.2426 31.2965 26.3485C31.1108 26.4543 30.9011 26.5108 30.6873 26.5125V26.525Z" fill="#6D6DAA"/>
<path opacity="0.3" d="M118.263 24.575C118.005 22.7273 118.444 20.8498 119.496 19.3089C120.548 17.7681 122.137 16.6747 123.951 16.2421C125.766 15.8095 127.677 16.0688 129.311 16.9693C130.945 17.8699 132.184 19.3471 132.788 21.1125C133.378 20.6421 134.089 20.3478 134.84 20.2636C135.59 20.1793 136.349 20.3084 137.029 20.6361C137.709 20.9638 138.283 21.4768 138.685 22.116C139.087 22.7553 139.3 23.495 139.3 24.25C139.3 24.3625 139.3 24.475 139.3 24.5875C140.654 25.0424 141.801 25.9666 142.534 27.193C143.266 28.4194 143.536 29.8673 143.295 31.2752C143.053 32.6832 142.316 33.9584 141.217 34.8707C140.118 35.783 138.728 36.2722 137.3 36.25H120.225C118.804 36.2535 117.427 35.7522 116.341 34.8355C115.255 33.9189 114.529 32.6463 114.293 31.2446C114.058 29.8429 114.328 28.4031 115.054 27.1816C115.781 25.9602 116.918 25.0364 118.263 24.575Z" fill="#EEF6FF"/>
<path opacity="0.3" d="M118.263 27.075C118.005 25.2273 118.444 23.3498 119.496 21.8089C120.548 20.2681 122.137 19.1747 123.951 18.7421C125.766 18.3095 127.677 18.5688 129.311 19.4693C130.945 20.3699 132.184 21.8471 132.788 23.6125C133.378 23.1421 134.089 22.8478 134.84 22.7636C135.59 22.6793 136.349 22.8084 137.029 23.1361C137.709 23.4638 138.283 23.9768 138.685 24.616C139.087 25.2553 139.3 25.995 139.3 26.75C139.3 26.8625 139.3 26.975 139.3 27.0875C140.273 27.4296 141.142 28.0164 141.823 28.7913C142.504 29.5663 142.974 30.5034 143.188 31.5125C143.506 30.0821 143.286 28.5844 142.568 27.3065C141.851 26.0286 140.687 25.0604 139.3 24.5875C139.3 24.475 139.3 24.3625 139.3 24.25C139.3 23.495 139.087 22.7553 138.685 22.116C138.283 21.4768 137.709 20.9638 137.029 20.6361C136.349 20.3084 135.59 20.1793 134.84 20.2636C134.089 20.3478 133.378 20.6421 132.788 21.1125C132.184 19.3471 130.945 17.8699 129.311 16.9693C127.677 16.0688 125.766 15.8095 123.951 16.2421C122.137 16.6747 120.548 17.7681 119.496 19.3089C118.444 20.8498 118.005 22.7273 118.263 24.575C116.866 25.0409 115.692 26.008 114.967 27.2894C114.242 28.5708 114.018 30.0754 114.338 31.5125C114.553 30.4969 115.028 29.5544 115.716 28.7768C116.403 27.9991 117.281 27.4128 118.263 27.075Z" fill="white"/>
<g opacity="0.3">
<path opacity="0.3" d="M137.3 33.75H120.225C118.852 33.7533 117.518 33.2863 116.447 32.4266C115.376 31.567 114.632 30.3666 114.337 29.025C114.247 29.4356 114.201 29.8546 114.2 30.275C114.21 31.8653 114.849 33.3868 115.979 34.5067C117.108 35.6265 118.635 36.2533 120.225 36.25H137.3C138.09 36.2516 138.872 36.0977 139.602 35.7971C140.332 35.4965 140.996 35.055 141.555 34.4978C142.115 33.9407 142.559 33.2788 142.862 32.5499C143.166 31.8211 143.323 31.0396 143.325 30.25C143.323 29.8296 143.277 29.4106 143.187 29C142.898 30.3462 142.156 31.5524 141.084 32.4169C140.013 33.2815 138.677 33.7521 137.3 33.75Z" fill="#5CBEFF"/>
</g>
<path opacity="0.3" d="M137.3 37.5H120.225C118.578 37.5243 116.972 36.986 115.672 35.974C114.372 34.9621 113.456 33.537 113.076 31.9342C112.696 30.3314 112.874 28.6468 113.58 27.1588C114.287 25.6707 115.48 24.4683 116.962 23.75C116.944 21.8085 117.572 19.916 118.747 18.3704C119.922 16.8249 121.578 15.7141 123.453 15.2129C125.329 14.7117 127.318 14.8487 129.108 15.6022C130.897 16.3557 132.385 17.683 133.337 19.375C134.096 19.0753 134.913 18.9554 135.725 19.0247C136.538 19.0941 137.323 19.3508 138.019 19.7747C138.716 20.1986 139.305 20.7782 139.739 21.468C140.174 22.1577 140.443 22.9388 140.525 23.75C142.005 24.4674 143.197 25.6677 143.904 27.1532C144.611 28.6386 144.79 30.3205 144.413 31.9217C144.036 33.5229 143.125 34.948 141.83 35.962C140.534 36.976 138.932 37.5184 137.287 37.5H137.3ZM125.75 17.5C124.868 17.4947 123.995 17.676 123.188 18.0322C122.381 18.3884 121.659 18.9113 121.068 19.5666C120.478 20.2218 120.033 20.9946 119.763 21.8341C119.492 22.6737 119.403 23.5609 119.5 24.4375C119.532 24.7208 119.467 25.0066 119.315 25.2476C119.162 25.4886 118.932 25.6703 118.662 25.7625C117.601 26.1308 116.705 26.8632 116.132 27.8298C115.56 28.7964 115.349 29.9346 115.536 31.0422C115.723 32.1498 116.297 33.1552 117.156 33.8798C118.014 34.6044 119.102 35.0013 120.225 35H137.3C138.428 35.0137 139.524 34.6244 140.39 33.9022C141.257 33.1799 141.837 32.1722 142.027 31.0602C142.217 29.9482 142.004 28.8049 141.426 27.8361C140.848 26.8672 139.944 26.1364 138.875 25.775C138.619 25.6859 138.398 25.5156 138.247 25.2901C138.096 25.0646 138.022 24.796 138.037 24.525C138.037 24.45 138.037 24.375 138.037 24.2875C138.036 23.7679 137.888 23.2592 137.61 22.8199C137.333 22.3806 136.937 22.0284 136.469 21.8039C136 21.5794 135.477 21.4916 134.961 21.5506C134.445 21.6096 133.956 21.813 133.55 22.1375C133.396 22.2606 133.215 22.3454 133.021 22.3851C132.828 22.4247 132.628 22.418 132.438 22.3656C132.248 22.3132 132.073 22.2165 131.927 22.0834C131.781 21.9504 131.669 21.7847 131.6 21.6C131.161 20.4007 130.364 19.3649 129.318 18.6318C128.273 17.8988 127.027 17.5038 125.75 17.5Z" fill="#6D6DAA"/>
<path opacity="0.3" d="M120.225 24.25C119.553 24.2477 118.886 24.3575 118.25 24.575L120.225 24.25Z" fill="#EEF6FF"/>
<path opacity="0.3" d="M118.25 25.825C117.957 25.8217 117.675 25.7158 117.452 25.5257C117.229 25.3356 117.08 25.0733 117.031 24.7847C116.982 24.496 117.036 24.1993 117.183 23.9462C117.331 23.6931 117.562 23.4998 117.837 23.4C118.605 23.1335 119.412 22.9983 120.225 23C120.556 23 120.874 23.1317 121.109 23.3661C121.343 23.6005 121.475 23.9184 121.475 24.25C121.475 24.5815 121.343 24.8994 121.109 25.1339C120.874 25.3683 120.556 25.5 120.225 25.5C119.693 25.4996 119.165 25.5883 118.662 25.7625C118.529 25.8063 118.39 25.8274 118.25 25.825Z" fill="#6D6DAA"/>
<path opacity="0.3" d="M139.288 24.5875C138.649 24.3644 137.977 24.2503 137.3 24.25L139.288 24.5875Z" fill="#EEF6FF"/>
<path opacity="0.3" d="M139.288 25.8375C139.147 25.8359 139.007 25.8105 138.875 25.7625C138.369 25.5872 137.836 25.4984 137.3 25.5C136.969 25.5 136.651 25.3683 136.416 25.1338C136.182 24.8994 136.05 24.5815 136.05 24.25C136.05 23.9184 136.182 23.6005 136.416 23.3661C136.651 23.1317 136.969 23 137.3 23C138.117 22.9979 138.928 23.1331 139.7 23.4C139.975 23.4998 140.207 23.6931 140.354 23.9462C140.501 24.1992 140.555 24.496 140.506 24.7847C140.457 25.0733 140.308 25.3356 140.085 25.5257C139.863 25.7158 139.58 25.8217 139.288 25.825V25.8375Z" fill="#6D6DAA"/>
<path opacity="0.3" d="M132.825 21.0876C132.38 21.4243 132.009 21.85 131.738 22.3376L132.825 21.0876Z" fill="#EEF6FF"/>
<path opacity="0.3" d="M131.725 23.6375C131.509 23.6369 131.298 23.5807 131.11 23.4741C130.923 23.3676 130.766 23.2145 130.656 23.0296C130.545 22.8447 130.484 22.6343 130.479 22.4188C130.473 22.2034 130.524 21.9902 130.625 21.8C130.977 21.1337 131.467 20.5499 132.062 20.0875C132.324 19.8836 132.657 19.7921 132.986 19.8332C133.315 19.8742 133.615 20.0444 133.819 20.3063C134.023 20.5682 134.114 20.9003 134.073 21.2297C134.032 21.5591 133.862 21.8586 133.6 22.0625C133.289 22.306 133.033 22.6128 132.85 22.9625C132.743 23.1682 132.582 23.3403 132.383 23.4595C132.184 23.5787 131.957 23.6403 131.725 23.6375Z" fill="#6D6DAA"/>
<path opacity="0.3" d="M113.462 70C112.966 68.0764 113.053 66.0483 113.713 64.1745C114.374 62.3007 115.577 60.6661 117.171 59.4792C118.764 58.2923 120.675 57.6069 122.659 57.5104C124.643 57.4139 126.612 57.9108 128.312 58.9375C129.901 56.8384 132.084 55.2658 134.578 54.4243C137.072 53.5829 139.761 53.5115 142.296 54.2194C144.831 54.9274 147.095 56.3819 148.792 58.3938C150.489 60.4057 151.542 62.8818 151.812 65.5C153.918 66.2167 155.701 67.659 156.841 69.5691C157.982 71.4792 158.406 73.7326 158.038 75.9266C157.67 78.1206 156.533 80.1121 154.832 81.5453C153.13 82.9785 150.975 83.76 148.75 83.75H113.75C112.847 83.7689 111.949 83.6097 111.108 83.2817C110.267 82.9536 109.498 82.4631 108.847 81.838C107.53 80.5757 106.769 78.8421 106.731 77.0188C106.693 75.1954 107.381 73.4316 108.643 72.1153C109.906 70.799 111.639 70.0381 113.462 70Z" fill="#EEF6FF"/>
<path opacity="0.3" d="M113.463 73.75C113.131 72.529 113.046 71.2542 113.213 70C112.195 70.0759 111.208 70.3785 110.323 70.8854C109.438 71.3924 108.678 72.0909 108.097 72.9299C107.517 73.7689 107.132 74.727 106.971 75.734C106.809 76.7411 106.874 77.7716 107.163 78.75C107.551 77.3588 108.37 76.126 109.501 75.228C110.633 74.33 112.019 73.8127 113.463 73.75Z" fill="white"/>
<path opacity="0.3" d="M123.137 61.25C124.962 61.2521 126.752 61.7535 128.312 62.7C129.901 60.6009 132.084 59.0283 134.578 58.1869C137.072 57.3454 139.761 57.274 142.296 57.9819C144.831 58.6899 147.095 60.1444 148.792 62.1563C150.489 64.1682 151.542 66.6443 151.812 69.2625C153.357 69.7977 154.735 70.7276 155.81 71.9599C156.884 73.1923 157.618 74.6841 157.937 76.2875C158.405 74.0536 158.041 71.7256 156.913 69.7414C155.785 67.7571 153.971 66.2533 151.812 65.5125C151.542 62.8943 150.489 60.4182 148.792 58.4063C147.095 56.3944 144.831 54.9399 142.296 54.2319C139.761 53.524 137.072 53.5954 134.578 54.4369C132.084 55.2783 129.901 56.8509 128.312 58.95C126.796 58.033 125.063 57.5353 123.292 57.508C121.52 57.4807 119.773 57.9247 118.229 58.7945C116.685 59.6644 115.4 60.9288 114.505 62.4585C113.611 63.9881 113.139 65.728 113.137 67.5C113.143 68.1087 113.205 68.7156 113.325 69.3125C113.774 67.0402 114.997 64.9941 116.787 63.5236C118.577 62.0532 120.821 61.2495 123.137 61.25Z" fill="white"/>
<path opacity="0.3" d="M113.462 66.25C113.462 66.025 113.362 65.775 113.325 65.5375C113.325 65.7875 113.237 66.025 113.212 66.275L113.462 66.25Z" fill="#5CBEFF"/>
<g opacity="0.3">
<path opacity="0.3" d="M148.75 80H113.75C112.256 79.9969 110.804 79.5072 109.613 78.605C108.422 77.7029 107.557 76.4374 107.15 75C106.976 75.593 106.883 76.207 106.875 76.825C106.868 77.732 107.041 78.6314 107.384 79.4713C107.726 80.3112 108.232 81.075 108.871 81.7187C109.51 82.3624 110.27 82.8733 111.107 83.2219C111.945 83.5705 112.843 83.75 113.75 83.75H148.75C150.144 83.7646 151.524 83.465 152.787 82.8735C154.05 82.2819 155.163 81.4136 156.045 80.3329C156.926 79.2522 157.553 77.9869 157.878 76.6309C158.204 75.2749 158.22 73.863 157.925 72.5C157.493 74.6155 156.344 76.517 154.673 77.8835C153.001 79.25 150.909 79.9976 148.75 80Z" fill="#5CBEFF"/>
</g>
<path opacity="0.3" d="M148.75 85H113.75C111.753 84.996 109.827 84.2563 108.34 82.9223C106.854 81.5883 105.91 79.7534 105.691 77.7682C105.471 75.7829 105.991 73.7863 107.15 72.1597C108.309 70.5331 110.027 69.3905 111.975 68.95C111.913 68.4692 111.884 67.9848 111.888 67.5C111.891 65.6 112.375 63.7317 113.296 62.0696C114.217 60.4074 115.543 59.0054 117.152 57.9945C118.761 56.9835 120.599 56.3965 122.496 56.2882C124.393 56.1799 126.287 56.5538 128 57.375C129.8 55.3182 132.15 53.8176 134.773 53.0496C137.396 52.2816 140.184 52.278 142.809 53.0393C145.434 53.8006 147.787 55.2951 149.592 57.3473C151.398 59.3996 152.58 61.9243 153 64.625C155.245 65.597 157.085 67.3137 158.211 69.4852C159.336 71.6568 159.678 74.1502 159.179 76.5446C158.679 78.9391 157.369 81.0878 155.469 82.6283C153.569 84.1687 151.196 85.0064 148.75 85ZM123.138 58.75C121.802 58.751 120.484 59.0579 119.285 59.6471C118.086 60.2364 117.037 61.0923 116.221 62.1494C115.404 63.2065 114.84 64.4366 114.572 65.7454C114.304 67.0542 114.339 68.407 114.675 69.7C114.72 69.8801 114.724 70.0678 114.687 70.2496C114.65 70.4314 114.573 70.6027 114.462 70.7511C114.351 70.8994 114.208 71.0212 114.043 71.1075C113.879 71.1938 113.698 71.2425 113.513 71.25C112.021 71.2815 110.602 71.9044 109.57 72.9815C108.537 74.0587 107.975 75.5019 108.006 76.9938C108.038 78.4856 108.661 79.9038 109.738 80.9365C110.815 81.9691 112.258 82.5315 113.75 82.5H148.75C150.669 82.4961 152.525 81.8131 153.989 80.572C155.452 79.3308 156.429 77.6116 156.747 75.719C157.064 73.8264 156.701 71.8825 155.723 70.2317C154.744 68.5809 153.213 67.3298 151.4 66.7C151.175 66.6229 150.977 66.4831 150.828 66.2971C150.68 66.1111 150.588 65.8866 150.563 65.65C150.316 63.2838 149.363 61.0465 147.828 59.2286C146.294 57.4107 144.248 56.0963 141.956 55.4561C139.665 54.8159 137.234 54.8794 134.979 55.6385C132.725 56.3975 130.75 57.817 129.313 59.7125C129.125 59.9602 128.853 60.1294 128.548 60.1871C128.243 60.2449 127.927 60.1871 127.663 60.025C126.299 59.1952 124.734 58.7543 123.138 58.75Z" fill="#6D6DAA"/>
<path opacity="0.3" d="M151.25 72.1875C151.047 72.1976 150.846 72.1582 150.662 72.0729C150.478 71.9875 150.317 71.8587 150.194 71.6975C150.071 71.5363 149.989 71.3477 149.955 71.1478C149.922 70.9478 149.937 70.7427 150 70.55C150.576 68.771 150.724 66.8811 150.433 65.0339C150.141 63.1868 149.418 61.4345 148.322 59.9194C147.226 58.4043 145.788 57.1692 144.125 56.3144C142.461 55.4597 140.62 55.0093 138.75 55C138.418 55 138.101 54.8683 137.866 54.6339C137.632 54.3995 137.5 54.0815 137.5 53.75C137.5 53.4185 137.632 53.1005 137.866 52.8661C138.101 52.6317 138.418 52.5 138.75 52.5C141.019 52.5017 143.255 53.04 145.276 54.0709C147.297 55.1018 149.046 56.596 150.379 58.4316C151.713 60.2672 152.593 62.3921 152.949 64.6329C153.304 66.8737 153.125 69.1668 152.425 71.325C152.344 71.5736 152.187 71.7905 151.976 71.9452C151.765 72.1 151.511 72.1847 151.25 72.1875Z" fill="#6D6DAA"/>
<path opacity="0.3" d="M118.287 72.9625C117.984 72.9621 117.69 72.851 117.463 72.65C116.437 71.7469 115.117 71.2491 113.75 71.25C113.418 71.25 113.101 71.1183 112.866 70.8839C112.632 70.6495 112.5 70.3315 112.5 70C112.5 69.6685 112.632 69.3505 112.866 69.1161C113.101 68.8817 113.418 68.75 113.75 68.75C115.718 68.7496 117.62 69.4648 119.1 70.7625C119.29 70.9303 119.425 71.1521 119.486 71.3984C119.547 71.6446 119.532 71.9037 119.443 72.1411C119.353 72.3785 119.194 72.5831 118.985 72.7276C118.776 72.8721 118.529 72.9496 118.275 72.95L118.287 72.9625Z" fill="#6D6DAA"/>
<path opacity="0.3" d="M131.25 62.925C131.052 62.9241 130.856 62.876 130.68 62.7847C130.504 62.6934 130.352 62.5615 130.237 62.4C129.428 61.272 128.363 60.3528 127.128 59.7181C125.893 59.0834 124.526 58.7516 123.137 58.75C122.806 58.75 122.488 58.6183 122.254 58.3839C122.019 58.1495 121.887 57.8315 121.887 57.5C121.887 57.1685 122.019 56.8505 122.254 56.6161C122.488 56.3817 122.806 56.25 123.137 56.25C124.926 56.2495 126.69 56.6756 128.281 57.493C129.872 58.3104 131.246 59.4955 132.287 60.95C132.42 61.1366 132.499 61.356 132.516 61.5845C132.532 61.8129 132.486 62.0415 132.382 62.2453C132.277 62.4491 132.119 62.6202 131.923 62.7401C131.728 62.86 131.504 62.9239 131.275 62.925H131.25Z" fill="#6D6DAA"/>
<path opacity="0.3" d="M152.5 105C152.332 105 152.166 104.966 152.012 104.9C151.86 104.839 151.724 104.745 151.612 104.625C151.381 104.392 151.251 104.078 151.25 103.75C151.244 103.585 151.273 103.42 151.335 103.267C151.398 103.114 151.492 102.976 151.612 102.863C151.847 102.63 152.163 102.499 152.494 102.499C152.824 102.499 153.141 102.63 153.375 102.863C153.495 102.974 153.589 103.11 153.65 103.263C153.715 103.417 153.749 103.582 153.75 103.75C153.745 104.08 153.61 104.394 153.375 104.625C153.264 104.745 153.127 104.839 152.975 104.9C152.825 104.964 152.663 104.998 152.5 105Z" fill="white"/>
<path opacity="0.3" d="M150 110H142.5C142.168 110 141.851 109.868 141.616 109.634C141.382 109.399 141.25 109.082 141.25 108.75C141.25 108.418 141.382 108.101 141.616 107.866C141.851 107.632 142.168 107.5 142.5 107.5H150C150.332 107.5 150.649 107.632 150.884 107.866C151.118 108.101 151.25 108.418 151.25 108.75C151.25 109.082 151.118 109.399 150.884 109.634C150.649 109.868 150.332 110 150 110Z" fill="white"/>
<path opacity="0.3" d="M147.5 105H138.75C138.418 105 138.101 104.868 137.866 104.634C137.632 104.399 137.5 104.082 137.5 103.75C137.5 103.418 137.632 103.101 137.866 102.866C138.101 102.632 138.418 102.5 138.75 102.5H147.5C147.832 102.5 148.149 102.632 148.384 102.866C148.618 103.101 148.75 103.418 148.75 103.75C148.75 104.082 148.618 104.399 148.384 104.634C148.149 104.868 147.832 105 147.5 105Z" fill="white"/>
<path opacity="0.3" d="M137.5 110H135C134.668 110 134.351 109.868 134.116 109.634C133.882 109.399 133.75 109.082 133.75 108.75C133.75 108.418 133.882 108.101 134.116 107.866C134.351 107.632 134.668 107.5 135 107.5H137.5C137.832 107.5 138.149 107.632 138.384 107.866C138.618 108.101 138.75 108.418 138.75 108.75C138.75 109.082 138.618 109.399 138.384 109.634C138.149 109.868 137.832 110 137.5 110Z" fill="white"/>
<path opacity="0.3" d="M147.5 115H137.5C137.168 115 136.851 114.868 136.616 114.634C136.382 114.399 136.25 114.082 136.25 113.75C136.25 113.418 136.382 113.101 136.616 112.866C136.851 112.632 137.168 112.5 137.5 112.5H147.5C147.832 112.5 148.149 112.632 148.384 112.866C148.618 113.101 148.75 113.418 148.75 113.75C148.75 114.082 148.618 114.399 148.384 114.634C148.149 114.868 147.832 115 147.5 115Z" fill="white"/>
<path opacity="0.3" d="M19.9998 95C19.8331 95.0037 19.6674 94.9739 19.5123 94.9125C19.3623 94.8479 19.2264 94.7545 19.1123 94.6375C18.9923 94.5239 18.8978 94.3859 18.8353 94.2329C18.7728 94.0798 18.7437 93.9152 18.7498 93.75C18.7478 93.5875 18.7776 93.4262 18.8373 93.275C18.9166 93.0858 19.0413 92.9189 19.2004 92.7893C19.3595 92.6596 19.548 92.5711 19.7494 92.5316C19.9508 92.492 20.1588 92.5027 20.355 92.5626C20.5513 92.6225 20.7298 92.7298 20.8748 92.875C20.9951 92.9862 21.0891 93.1229 21.1498 93.275C21.2139 93.4253 21.2479 93.5867 21.2498 93.75C21.2495 93.9176 21.2155 94.0834 21.1498 94.2375C21.0895 94.3899 20.9955 94.5266 20.8748 94.6375C20.7607 94.7545 20.6248 94.8479 20.4748 94.9125C20.3237 94.9723 20.1623 95.002 19.9998 95Z" fill="white"/>
<path opacity="0.3" d="M21.25 90H18.75C18.4185 90 18.1005 89.8683 17.8661 89.6339C17.6317 89.3995 17.5 89.0815 17.5 88.75C17.5 88.4185 17.6317 88.1005 17.8661 87.8661C18.1005 87.6317 18.4185 87.5 18.75 87.5H21.25C21.5815 87.5 21.8995 87.6317 22.1339 87.8661C22.3683 88.1005 22.5 88.4185 22.5 88.75C22.5 89.0815 22.3683 89.3995 22.1339 89.6339C21.8995 89.8683 21.5815 90 21.25 90Z" fill="white"/>
<path opacity="0.3" d="M25 85H12.5C12.1685 85 11.8505 84.8683 11.6161 84.6339C11.3817 84.3995 11.25 84.0815 11.25 83.75C11.25 83.4185 11.3817 83.1005 11.6161 82.8661C11.8505 82.6317 12.1685 82.5 12.5 82.5H25C25.3315 82.5 25.6495 82.6317 25.8839 82.8661C26.1183 83.1005 26.25 83.4185 26.25 83.75C26.25 84.0815 26.1183 84.3995 25.8839 84.6339C25.6495 84.8683 25.3315 85 25 85Z" fill="white"/>
<path opacity="0.3" d="M13.75 90H8.75C8.41848 90 8.10054 89.8683 7.86612 89.6339C7.6317 89.3995 7.5 89.0815 7.5 88.75C7.5 88.4185 7.6317 88.1005 7.86612 87.8661C8.10054 87.6317 8.41848 87.5 8.75 87.5H13.75C14.0815 87.5 14.3995 87.6317 14.6339 87.8661C14.8683 88.1005 15 88.4185 15 88.75C15 89.0815 14.8683 89.3995 14.6339 89.6339C14.3995 89.8683 14.0815 90 13.75 90Z" fill="white"/>
<path opacity="0.3" d="M15 95H5C4.66848 95 4.35054 94.8683 4.11612 94.6339C3.8817 94.3995 3.75 94.0815 3.75 93.75C3.75 93.4185 3.8817 93.1005 4.11612 92.8661C4.35054 92.6317 4.66848 92.5 5 92.5H15C15.3315 92.5 15.6495 92.6317 15.8839 92.8661C16.1183 93.1005 16.25 93.4185 16.25 93.75C16.25 94.0815 16.1183 94.3995 15.8839 94.6339C15.6495 94.8683 15.3315 95 15 95Z" fill="white"/>
<path opacity="0.3" d="M112.5 147.5H52.5C52.1685 147.5 51.8505 147.368 51.6161 147.134C51.3817 146.899 51.25 146.582 51.25 146.25C51.25 145.918 51.3817 145.601 51.6161 145.366C51.8505 145.132 52.1685 145 52.5 145H112.5C112.832 145 113.149 145.132 113.384 145.366C113.618 145.601 113.75 145.918 113.75 146.25C113.75 146.582 113.618 146.899 113.384 147.134C113.149 147.368 112.832 147.5 112.5 147.5Z" fill="#6D6DAA"/>
<path opacity="0.3" d="M117.5 147.5H116.25C115.918 147.5 115.601 147.368 115.366 147.134C115.132 146.899 115 146.582 115 146.25C115 145.918 115.132 145.601 115.366 145.366C115.601 145.132 115.918 145 116.25 145H117.5C117.832 145 118.149 145.132 118.384 145.366C118.618 145.601 118.75 145.918 118.75 146.25C118.75 146.582 118.618 146.899 118.384 147.134C118.149 147.368 117.832 147.5 117.5 147.5Z" fill="#6D6DAA"/>
<path opacity="0.3" d="M48.75 147.5H45C44.6685 147.5 44.3505 147.368 44.1161 147.134C43.8817 146.899 43.75 146.582 43.75 146.25C43.75 145.918 43.8817 145.601 44.1161 145.366C44.3505 145.132 44.6685 145 45 145H48.75C49.0815 145 49.3995 145.132 49.6339 145.366C49.8683 145.601 50 145.918 50 146.25C50 146.582 49.8683 146.899 49.6339 147.134C49.3995 147.368 49.0815 147.5 48.75 147.5Z" fill="#6D6DAA"/>
</g>
<path d="M89.1625 18.7499C89.4865 19.8421 90.0746 20.8377 90.8747 21.6486C91.6748 22.4596 92.6623 23.0611 93.75 23.3999C96.0583 24.1666 96.0583 24.9374 93.75 25.7124C92.6619 26.0442 91.6721 26.6384 90.8678 27.4428C90.0634 28.2471 89.4692 29.2369 89.1375 30.3249C88.3708 32.6333 87.6 32.6333 86.825 30.3249C86.4932 29.2369 85.899 28.2471 85.0946 27.4428C84.2903 26.6384 83.3005 26.0442 82.2125 25.7124C79.9041 24.9458 79.9041 24.1749 82.2125 23.3999C83.3094 23.0682 84.307 22.4699 85.1163 21.6584C85.9255 20.847 86.5212 19.8478 86.85 18.7499C87.6166 16.4666 88.3875 16.4666 89.1625 18.7499Z" fill="#1E81CE" fill-opacity="0.25"/>
<path d="M125 40.7125C125.229 41.4338 125.631 42.0879 126.172 42.6175C126.712 43.147 127.374 43.5359 128.1 43.75C129.642 44.2667 129.642 44.7792 128.1 45.2875C127.366 45.5087 126.698 45.9089 126.157 46.4522C125.616 46.9955 125.218 47.6649 125 48.4C124.483 49.9417 123.971 49.9417 123.462 48.4C123.241 47.6746 122.845 47.0148 122.309 46.4786C121.773 45.9423 121.113 45.5462 120.387 45.325C118.846 44.8083 118.846 44.2958 120.387 43.7875C121.113 43.5663 121.773 43.1702 122.309 42.634C122.845 42.0977 123.241 41.4379 123.462 40.7125C123.987 39.1708 124.5 39.1708 125 40.7125Z" fill="#1E81CE" fill-opacity="0.25"/>
<path d="M26.4624 127.263C26.7381 128.171 27.2337 128.998 27.9052 129.67C28.5768 130.341 29.4036 130.837 30.3124 131.113C32.2374 131.754 32.2374 132.396 30.3124 133.038C29.4036 133.313 28.5768 133.809 27.9052 134.48C27.2337 135.152 26.7381 135.979 26.4624 136.888C25.8207 138.813 25.1791 138.813 24.5374 136.888C24.2617 135.979 23.7662 135.152 23.0946 134.48C22.423 133.809 21.5962 133.313 20.6874 133.038C18.7624 132.396 18.7624 131.754 20.6874 131.113C21.5962 130.837 22.423 130.341 23.0946 129.67C23.7662 128.998 24.2617 128.171 24.5374 127.263C25.1791 125.338 25.8207 125.338 26.4624 127.263Z" fill="#96D7FF"/>
<path d="M23.75 56.9625C23.9776 57.6824 24.378 58.3355 24.9162 58.865C25.4544 59.3945 26.114 59.7842 26.8375 60C28.3791 60.5167 28.3791 61.0292 26.8375 61.5375C26.1055 61.7604 25.4403 62.1615 24.9015 62.7047C24.3626 63.2479 23.967 63.9163 23.75 64.65C23.2333 66.1917 22.7208 66.1917 22.2125 64.65C21.9913 63.9246 21.5951 63.2648 21.0589 62.7286C20.5227 62.1923 19.8628 61.7962 19.1375 61.575C17.5958 61.0583 17.5958 60.5458 19.1375 60.0375C19.8628 59.8163 20.5227 59.4202 21.0589 58.884C21.5951 58.3477 21.9913 57.6879 22.2125 56.9625C22.7375 55.4208 23.25 55.4208 23.75 56.9625Z" fill="#1E81CE" fill-opacity="0.25"/>
<path d="M12.5 100.713C12.7276 101.432 13.128 102.086 13.6662 102.615C14.2044 103.145 14.864 103.534 15.5875 103.75C17.1291 104.267 17.1291 104.779 15.5875 105.288C14.8541 105.512 14.188 105.915 13.649 106.46C13.11 107.006 12.7152 107.677 12.5 108.413C11.9833 109.954 11.4708 109.954 10.9625 108.413C10.7413 107.687 10.3451 107.027 9.8089 106.491C9.27268 105.955 8.61282 105.559 7.88745 105.338C6.34578 104.821 6.34578 104.308 7.88745 103.8C8.61282 103.579 9.27268 103.183 9.8089 102.646C10.3451 102.11 10.7413 101.45 10.9625 100.725C11.4875 99.1834 12 99.1792 12.5 100.713Z" fill="#1E81CE" fill-opacity="0.25"/>
<path d="M145 119.462C145.229 120.184 145.631 120.838 146.172 121.367C146.712 121.897 147.374 122.286 148.1 122.5C149.642 123.017 149.642 123.529 148.1 124.037C147.375 124.259 146.715 124.655 146.179 125.191C145.642 125.727 145.246 126.387 145.025 127.112C144.508 128.654 143.996 128.654 143.488 127.112C143.266 126.387 142.87 125.727 142.334 125.191C141.798 124.655 141.138 124.259 140.413 124.037C138.871 123.521 138.871 123.008 140.413 122.5C141.138 122.279 141.798 121.883 142.334 121.346C142.87 120.81 143.266 120.15 143.488 119.425C144.004 117.917 144.508 117.929 145 119.462Z" fill="#96D7FF"/>
<path d="M80 146.25C108.995 146.25 132.5 122.745 132.5 93.75C132.5 64.7551 108.995 41.25 80 41.25C51.0051 41.25 27.5 64.7551 27.5 93.75C27.5 122.745 51.0051 146.25 80 146.25Z" fill="#9BC9FF"/>
<g opacity="0.3">
<path opacity="0.3" d="M80 141.25C66.5095 141.249 53.5369 136.055 43.7734 126.746C34.01 117.436 28.2049 104.725 27.5625 91.25C27.5625 92.075 27.5 92.9125 27.5 93.75C27.5 107.674 33.0312 121.027 42.8769 130.873C52.7226 140.719 66.0761 146.25 80 146.25C93.9239 146.25 107.277 140.719 117.123 130.873C126.969 121.027 132.5 107.674 132.5 93.75C132.5 92.9125 132.5 92.075 132.438 91.25C131.795 104.725 125.99 117.436 116.227 126.746C106.463 136.055 93.4905 141.249 80 141.25Z" fill="#1E81CE"/>
</g>
<g opacity="0.5">
<path opacity="0.5" d="M80 46.25C93.4905 46.2508 106.463 51.4447 116.227 60.7543C125.99 70.0639 131.795 82.7748 132.438 96.25C132.438 95.425 132.5 94.5875 132.5 93.75C132.5 79.8261 126.969 66.4726 117.123 56.6269C107.277 46.7812 93.9239 41.25 80 41.25C66.0761 41.25 52.7226 46.7812 42.8769 56.6269C33.0312 66.4726 27.5 79.8261 27.5 93.75C27.5 94.5875 27.5 95.425 27.5625 96.25C28.2049 82.7748 34.01 70.0639 43.7734 60.7543C53.5369 51.4447 66.5095 46.2508 80 46.25Z" fill="white"/>
</g>
<path d="M80 147.5C69.3693 147.5 58.9773 144.348 50.1381 138.442C41.299 132.535 34.4097 124.141 30.3415 114.319C26.2733 104.498 25.2089 93.6904 27.2828 83.2639C29.3568 72.8374 34.476 63.2601 41.993 55.743C49.5101 48.2259 59.0874 43.1068 69.5139 41.0328C79.9404 38.9588 90.7477 40.0233 100.569 44.0915C110.391 48.1597 118.785 55.049 124.692 63.8881C130.598 72.7273 133.75 83.1193 133.75 93.75C133.75 108.005 128.087 121.677 118.007 131.757C107.927 141.837 94.2554 147.5 80 147.5ZM80 42.5C69.8637 42.5 59.9551 45.5058 51.527 51.1372C43.099 56.7686 36.5302 64.7728 32.6512 74.1375C28.7722 83.5022 27.7573 93.8069 29.7348 103.748C31.7123 113.69 36.5934 122.822 43.7608 129.989C50.9282 137.157 60.0601 142.038 70.0016 144.015C79.9432 145.993 90.2478 144.978 99.6125 141.099C108.977 137.22 116.981 130.651 122.613 122.223C128.244 113.795 131.25 103.886 131.25 93.75C131.25 80.1577 125.85 67.122 116.239 57.5108C106.628 47.8995 93.5924 42.5 80 42.5Z" fill="#1E81CE"/>
<g opacity="0.3">
<path opacity="0.3" d="M106.25 78.75C106.123 77.889 105.75 77.0831 105.175 76.4294C104.601 75.7757 103.849 75.3021 103.012 75.0656C102.174 74.8291 101.286 74.8399 100.455 75.0966C99.6232 75.3534 98.8836 75.8451 98.3251 76.5125L76.1376 99.7375L65.9376 94.3375C63.7126 93.2875 61.8626 92.95 60.0625 94.7625C59.6403 95.1832 59.3067 95.6842 59.0812 96.236C58.8558 96.7877 58.7432 97.379 58.7501 97.975C58.7491 99.1166 59.1983 100.212 60.0001 101.025L73.2751 115.913C74.2773 116.889 75.6258 117.428 77.0251 117.413H77.3626C78.1255 117.36 78.868 117.143 79.539 116.776C80.21 116.409 80.7937 115.901 81.2501 115.288L105.375 82.1125C105.74 81.6397 106.005 81.0983 106.155 80.5205C106.306 79.9427 106.338 79.3406 106.25 78.75Z" fill="#1E81CE"/>
</g>
<path d="M105 75.2125C104.943 74.7913 104.804 74.3854 104.589 74.0185C104.375 73.6516 104.089 73.3309 103.75 73.075C103.068 72.5758 102.22 72.3584 101.382 72.4678C100.544 72.5772 99.7807 73.005 99.2499 73.6625L76.3874 97.5L65.3999 91.6875C63.2749 90.675 62.1624 90.65 60.9499 91.8625C60.641 92.1698 60.3976 92.5364 60.2343 92.9403C60.0711 93.3442 59.9913 93.777 59.9999 94.2125C59.9959 95.0498 60.324 95.8544 60.9124 96.45L74.1499 111.25C74.9035 111.99 75.9186 112.404 76.9749 112.4H77.2749C77.8514 112.357 78.412 112.191 78.9188 111.913C79.4256 111.635 79.8667 111.251 80.2124 110.788L104.35 77.6125C104.613 77.2761 104.806 76.8904 104.918 76.4783C105.029 76.0661 105.057 75.6357 105 75.2125Z" fill="#EEF6FF"/>
<path d="M60.95 95.65C62.2 94.4 63.275 94.4 65.4 95.475L75.55 100.85C75.7901 100.978 76.0651 101.023 76.3336 100.981C76.602 100.938 76.8491 100.808 77.0375 100.613L99.175 77.4001C99.7058 76.7425 100.469 76.3147 101.307 76.2053C102.145 76.0959 102.993 76.3134 103.675 76.8126C103.946 77.02 104.182 77.2689 104.375 77.5501C104.877 76.8621 105.085 76.0029 104.954 75.1614C104.823 74.3199 104.363 73.565 103.675 73.0626C102.993 72.5634 102.145 72.3459 101.307 72.4553C100.469 72.5647 99.7058 72.9925 99.175 73.6501L76.3875 97.5001L65.4 91.6875C63.275 90.6751 62.1625 90.65 60.95 91.8625C60.4064 92.4041 60.0727 93.1211 60.0086 93.8858C59.9445 94.6505 60.1541 95.4131 60.6 96.0376C60.7062 95.8993 60.8233 95.7697 60.95 95.65Z" fill="white"/>
<g opacity="0.3">
<path opacity="0.3" d="M104.388 73.75V73.8125L80.2001 107.05C79.8544 107.513 79.4133 107.897 78.9065 108.175C78.3997 108.454 77.8391 108.62 77.2626 108.662H76.9626C75.9088 108.659 74.8985 108.242 74.1501 107.5L60.9125 92.7C60.7976 92.5844 60.6931 92.4589 60.6 92.325C60.2063 92.8753 59.9963 93.5358 60.0001 94.2125C59.9961 95.0497 60.3242 95.8544 60.9125 96.45L74.1501 111.25C74.9036 111.99 75.9187 112.403 76.9751 112.4H77.2751C77.8516 112.357 78.4122 112.191 78.919 111.913C79.4258 111.635 79.8669 111.251 80.2126 110.787L104.35 77.6125C104.763 77.0627 104.986 76.3938 104.986 75.7062C104.986 75.0187 104.763 74.3498 104.35 73.8L104.388 73.75Z" fill="#7690A8"/>
</g>
<path d="M77.0251 113.675C75.6258 113.691 74.2773 113.152 73.2751 112.175L60.0001 97.2875C59.1952 96.4719 58.7458 95.3709 58.7501 94.225C58.7472 93.6303 58.8629 93.0411 59.0904 92.4916C59.3179 91.9422 59.6527 91.4436 60.0751 91.025C61.8751 89.2125 63.725 89.55 65.95 90.6L76.1501 96L98.2751 72.7875C98.8284 72.1045 99.5691 71.5979 100.406 71.33C101.244 71.0621 102.141 71.0446 102.988 71.2796C103.835 71.5146 104.595 71.9919 105.174 72.6528C105.754 73.3137 106.128 74.1295 106.25 75C106.336 75.5857 106.304 76.1827 106.156 76.7559C106.008 77.3291 105.747 77.8669 105.388 78.3375L81.2501 111.538C80.7952 112.146 80.2149 112.649 79.5485 113.014C78.8821 113.378 78.1451 113.595 77.3876 113.65H77.0501L77.0251 113.675ZM62.9126 92.225C62.703 92.2339 62.498 92.2889 62.3122 92.3861C62.1264 92.4834 61.9643 92.6204 61.8376 92.7875C61.6497 92.9739 61.5009 93.196 61.4 93.4407C61.2991 93.6854 61.2482 93.9478 61.2501 94.2125C61.2446 94.7157 61.4378 95.2007 61.7876 95.5625L75.0751 110.438C75.5874 110.915 76.2624 111.178 76.9626 111.175H77.2126C77.611 111.135 77.996 111.009 78.3412 110.807C78.6864 110.604 78.9837 110.329 79.2126 110L103.338 76.875C103.503 76.6675 103.624 76.4288 103.695 76.1732C103.766 75.9177 103.785 75.6504 103.75 75.3875C103.66 74.8842 103.378 74.4357 102.963 74.1375C102.539 73.8314 102.015 73.6984 101.497 73.7658C100.979 73.8331 100.506 74.0958 100.175 74.5L77.3001 98.4C77.1117 98.5959 76.8645 98.7251 76.5961 98.768C76.3277 98.8108 76.0526 98.765 75.8126 98.6375L64.8251 92.825C64.236 92.4947 63.5847 92.2904 62.9126 92.225Z" fill="#1E81CE"/>
</svg>
