<svg height="112.889" viewBox="0 0 112.889 112.889" width="112.889" xmlns="http://www.w3.org/2000/svg"><g fill="#6e13e6"><path d="m56.445 0a56.445 56.445 0 1 0 56.445 56.445 56.413 56.413 0 0 0 -56.445-56.445zm0 105.363a48.919 48.919 0 1 1 48.919-48.919 48.974 48.974 0 0 1 -48.919 48.919z"/><path d="m242.693 209.777a3.763 3.763 0 0 0 -3.763 3.763v31.743a3.763 3.763 0 0 0 7.526 0v-31.743a3.763 3.763 0 0 0 -3.763-3.763z" transform="translate(-186.249 -163.524)"/><path d="m229.393 124.122a7.526 7.526 0 1 0 7.526 7.526 7.534 7.534 0 0 0 -7.526-7.526z" transform="translate(-172.948 -96.755)"/></g></svg>