<svg enable-background="new 0 0 512 512" viewBox="0 0 512 512" xmlns="http://www.w3.org/2000/svg"><g fill="#fff"><path d="m37.3 490.7h53.3c20.6 0 37.3-16.7 37.3-37.3v-245.4c0-20.6-16.7-37.3-37.3-37.3h-53.3c-20.6 0-37.3 16.7-37.3 37.3v245.3c0 20.6 16.7 37.4 37.3 37.4z"/><path d="m272.7 16c-21.3 0-32 10.7-32 64 0 50.7-49.1 91.5-80.7 112.5v264.3c34.2 15.8 102.5 39.2 208.7 39.2h34.1c41.6 0 77-29.9 84.1-70.8l23.9-138.7c9-52.3-31.1-99.8-84.1-99.8h-100.7s16-32 16-85.3c0-64.1-48-85.4-69.3-85.4z"/></g></svg>