<?xml version="1.0" encoding="utf-8"?>
<!-- Generator: Adobe Illustrator 21.0.2, SVG Export Plug-In . SVG Version: 6.00 Build 0)  -->
<svg version="1.1" id="Camada_1" xmlns="http://www.w3.org/2000/svg" xmlns:xlink="http://www.w3.org/1999/xlink" x="0px" y="0px"
	 viewBox="0 0 449 448.5" style="enable-background:new 0 0 449 448.5;" xml:space="preserve">
<style type="text/css">
	.st0{fill:#9B507B;}
	.st1{fill:#008CF6;stroke:#1477EC;stroke-width:10.88;stroke-miterlimit:10;}
	.st2{fill:#007AF6;}
	.st3{fill:#E46CA5;stroke:#9B507B;stroke-width:25.5118;stroke-miterlimit:10;}
</style>
<title>icon</title>
<rect x="214.7" y="44.5" class="st0" width="12.2" height="361.2"/>
<rect x="40.2" y="219" class="st0" width="361.2" height="12.2"/>
<rect x="40.2" y="219" transform="matrix(0.7071 -0.7071 0.7071 0.7071 -94.497 222.0842)" class="st0" width="361.2" height="12.2"/>
<rect x="211.1" y="44.5" transform="matrix(0.7071 -0.7071 0.7071 0.7071 -95.5713 219.5186)" class="st0" width="12.2" height="361.2"/>
<rect x="212.9" y="46.3" transform="matrix(0.9206 -0.3904 0.3904 0.9206 -71.213 103.5185)" class="st0" width="12.2" height="361.2"/>
<rect x="38.4" y="220.8" transform="matrix(0.3986 -0.9171 0.9171 0.3986 -76.393 337.366)" class="st0" width="361.2" height="12.2"/>
<rect x="40.2" y="222.6" transform="matrix(0.9206 -0.3904 0.3904 0.9206 -71.7846 104.3713)" class="st0" width="361.2" height="12.2"/>
<rect x="215.8" y="50.7" transform="matrix(0.3986 -0.9171 0.9171 0.3986 -78.6476 342.5962)" class="st0" width="12.2" height="361.2"/>
<circle class="st1" cx="220.8" cy="25.1" r="19.6"/>
<circle class="st1" cx="220.8" cy="423.4" r="19.6"/>
<circle class="st1" cx="423.9" cy="225.1" r="19.6"/>
<circle class="st1" cx="25.1" cy="225.1" r="19.6"/>
<circle class="st1" cx="82.3" cy="363.6" r="19.6"/>
<circle class="st1" cx="355.7" cy="363.6" r="19.6"/>
<circle class="st1" cx="359.2" cy="86.8" r="19.6"/>
<circle class="st1" cx="78.9" cy="86.8" r="19.7"/>
<circle class="st2" cx="44.7" cy="154.3" r="16.1"/>
<circle class="st2" cx="142.2" cy="403.8" r="16.1"/>
<circle class="st2" cx="295.9" cy="405.7" r="16.1"/>
<circle class="st2" cx="398.7" cy="308.1" r="16.1"/>
<circle class="st2" cx="398.7" cy="153.3" r="16.1"/>
<circle class="st2" cx="296" cy="49.8" r="16.1"/>
<circle class="st2" cx="143.9" cy="49.8" r="16.1"/>
<circle class="st2" cx="44.7" cy="303.4" r="16.1"/>
<circle class="st3" cx="224.5" cy="224.2" r="126.4"/>
<circle class="st0" cx="259" cy="193.7" r="32"/>
<circle class="st0" cx="156.4" cy="224.7" r="19.2"/>
<circle class="st0" cx="240.5" cy="291.9" r="19.2"/>
<circle class="st0" cx="180.6" cy="268" r="9.6"/>
<circle class="st0" cx="297.8" cy="253.4" r="9.6"/>
<circle class="st0" cx="185.5" cy="165.5" r="9.6"/>
</svg>
