<svg width="64" height="64" viewBox="0 0 64 64" fill="none" xmlns="http://www.w3.org/2000/svg">
<path d="M55 13V32C55 41.5 49.25 48.25 43.5 52.62C39.9886 55.2812 36.1165 57.4294 32 59C32 59 9 51 9 32V13L32 5L55 13Z" fill="white"/>
<path d="M32 60C31.8874 59.9987 31.7758 59.9784 31.67 59.94C31.43 59.86 8 51.49 8 32V13C8.00082 12.7933 8.06569 12.5919 8.18567 12.4236C8.30566 12.2552 8.47486 12.1282 8.67 12.06L31.67 4.06C31.8837 3.98531 32.1163 3.98531 32.33 4.06L55.33 12.06C55.5251 12.1282 55.6943 12.2552 55.8143 12.4236C55.9343 12.5919 55.9992 12.7933 56 13V32C56 40.1 51.89 47.5 44.1 53.42C40.5072 56.1509 36.5398 58.3502 32.32 59.95C32.2168 59.9839 32.1087 60.0008 32 60ZM10 13.71V32C10 48.84 29.23 56.87 32 57.93C35.8878 56.3913 39.5507 54.3362 42.89 51.82C50.26 46.22 54 39.55 54 32V13.71L32 6.06L10 13.71Z" fill="#5E42A6"/>
<path d="M51 16V32C51 39.5 46.25 45 41.5 48.62C38.589 50.8313 35.3937 52.6409 32 54C32 54 13 47 13 32V16L32 10L51 16Z" fill="#D7CEEE"/>
<path d="M43.1199 46C42.4299 46.62 41.6899 47.24 40.8899 47.85C38.148 49.9044 35.1619 51.6108 31.9999 52.93C27.9356 51.2317 24.1838 48.8658 20.8999 45.93C22.1536 44.136 23.825 42.6739 25.7699 41.67C26.7466 41.1614 27.5608 40.3887 28.1199 39.44C28.6825 38.4955 28.9861 37.4193 28.9999 36.32C27.6586 35.5439 26.6695 34.2789 26.2399 32.79L24.9999 28.56C24.653 27.4604 24.5701 26.2946 24.7578 25.157C24.9455 24.0194 25.3986 22.942 26.0803 22.0121C26.762 21.0822 27.6532 20.326 28.6817 19.8048C29.7101 19.2835 30.8469 19.0119 31.9999 19.0119C33.1529 19.0119 34.2897 19.2835 35.3181 19.8048C36.3466 20.326 37.2378 21.0822 37.9195 22.0121C38.6012 22.942 39.0543 24.0194 39.242 25.157C39.4297 26.2946 39.3468 27.4604 38.9999 28.56L37.7999 32.79C37.3606 34.2857 36.3564 35.5518 34.9999 36.32C34.9864 37.4244 35.2781 38.5111 35.8427 39.4604C36.4073 40.4097 37.223 41.1847 38.1999 41.7C40.1668 42.7095 41.8561 44.186 43.1199 46Z" fill="white"/>
<path d="M51.3001 15L32.3001 9C32.1062 8.92971 31.8939 8.92971 31.7001 9L12.7001 15C12.4894 15.066 12.3064 15.1999 12.1798 15.3808C12.0532 15.5617 11.99 15.7794 12.0001 16V32C12.0001 47.52 30.8501 54.64 31.6501 54.94C31.8765 55.0201 32.1236 55.0201 32.3501 54.94C35.8349 53.5433 39.1174 51.6868 42.1101 49.42C48.5801 44.48 52.0001 38.46 52.0001 32V16C52.0102 15.7794 51.947 15.5617 51.8203 15.3808C51.6937 15.1999 51.5108 15.066 51.3001 15ZM40.8901 47.83C38.1492 49.8914 35.1631 51.6045 32.0001 52.93C28.2537 51.3668 24.7671 49.2425 21.6601 46.63L21.7201 46.53C22.8822 44.8683 24.4297 43.513 26.2301 42.58C27.3762 41.9955 28.3357 41.1017 29.0001 40C29.6524 38.8904 29.9975 37.6271 30.0001 36.34C29.999 36.1655 29.9523 35.9943 29.8646 35.8434C29.7769 35.6925 29.6512 35.5673 29.5001 35.48C28.3826 34.8337 27.5585 33.7802 27.2001 32.54L26.0001 28.28C25.5692 26.8848 25.6221 25.385 26.1503 24.0237C26.6785 22.6624 27.6509 21.5194 28.9101 20.78C29.8719 20.2729 30.9428 20.0079 32.0301 20.0079C33.1174 20.0079 34.1883 20.2729 35.1501 20.78C36.4005 21.5289 37.3619 22.6774 37.8791 24.0401C38.3962 25.4028 38.4388 26.9001 38.0001 28.29L36.8001 32.52C36.4417 33.7602 35.6175 34.8137 34.5001 35.46C34.3489 35.5473 34.2233 35.6725 34.1355 35.8234C34.0478 35.9743 34.0011 36.1455 34.0001 36.32C33.9862 37.608 34.3281 38.8749 34.9879 39.9812C35.6478 41.0874 36.6001 41.9902 37.7401 42.59C39.5524 43.5358 41.1072 44.9087 42.2701 46.59L42.3301 46.68C41.8901 47 41.4101 47.44 40.8901 47.83ZM50.0001 32C50.0001 36.84 47.9101 41.28 43.8301 45.27C42.4894 43.3978 40.7246 41.8694 38.6801 40.81C37.9421 40.4164 37.3147 39.844 36.8552 39.1452C36.3958 38.4464 36.1189 37.6435 36.0501 36.81C37.3541 35.8941 38.3066 34.5606 38.7501 33.03L40.0001 28.84C40.5587 26.9984 40.475 25.0216 39.7627 23.2337C39.0505 21.4459 37.752 19.9531 36.0801 19C34.8246 18.3354 33.4256 17.988 32.0051 17.988C30.5845 17.988 29.1856 18.3354 27.9301 19C26.2584 19.9511 24.9593 21.4416 24.2453 23.2274C23.5313 25.0133 23.4449 26.9886 24.0001 28.83L25.2001 33.06C25.641 34.5892 26.5898 35.9224 27.8901 36.84C27.8393 37.5972 27.6243 38.3342 27.2601 39C26.7961 39.7871 26.1204 40.428 25.3101 40.85C23.2678 41.9088 21.5062 43.4374 20.1701 45.31C16.7801 41.94 14.0001 37.52 14.0001 32V16.73L32.0001 11L50.0001 16.68V32Z" fill="#5E42A6"/>
</svg>
