<svg viewBox="0 0 164.18 97.7" xmlns="http://www.w3.org/2000/svg" xmlns:xlink="http://www.w3.org/1999/xlink"><clipPath id="a"><path d="m0 0h164v48h-164z"/></clipPath><g fill="#999"><path d="m19.39 79.57-6.14.05.15 18h-5.07l-.15-18-6.18.11v-4.06l17.35-.15z"/><path d="m43 86.32a11.86 11.86 0 0 1 -.79 4.46 10.73 10.73 0 0 1 -2.26 3.61 10.58 10.58 0 0 1 -3.56 2.41 12 12 0 0 1 -4.62.9 12.1 12.1 0 0 1 -4.65-.82 10.74 10.74 0 0 1 -3.62-2.34 10.91 10.91 0 0 1 -2.39-3.54 12.64 12.64 0 0 1 -.08-8.9 10.44 10.44 0 0 1 5.85-6 12.11 12.11 0 0 1 4.64-.9 11.81 11.81 0 0 1 4.64.84 10.38 10.38 0 0 1 5.93 5.9 11.82 11.82 0 0 1 .91 4.38zm-5.18 0a9.55 9.55 0 0 0 -.44-2.93 6.18 6.18 0 0 0 -1.23-2.21 5.13 5.13 0 0 0 -1.93-1.38 6.57 6.57 0 0 0 -2.6-.46 6.72 6.72 0 0 0 -2.62.51 5.27 5.27 0 0 0 -2 1.46 6.31 6.31 0 0 0 -1.18 2.24 9.55 9.55 0 0 0 -.39 2.94 9.75 9.75 0 0 0 .45 3 6.33 6.33 0 0 0 1.22 2.2 5.27 5.27 0 0 0 1.96 1.31 6.91 6.91 0 0 0 2.63.45 6.76 6.76 0 0 0 2.58-.45 5.14 5.14 0 0 0 1.91-1.41 6.2 6.2 0 0 0 1.19-2.22 9.75 9.75 0 0 0 .4-3z"/><path d="m61 79.2-6.14.05.15 18-5.01.05-.15-18-6.14.05v-4.06l17.29-.14z"/><path d="m84.41 74.94-8.56 22.13h-4.59l-8.94-22h4.08a1.67 1.67 0 0 1 1.07.31 1.91 1.91 0 0 1 .62.78l4.32 11.84q.31.77.6 1.69t.56 1.9q.2-1 .45-1.91t.55-1.7l4.09-11.84a1.81 1.81 0 0 1 .58-.76 1.65 1.65 0 0 1 1.07-.38z"/><path d="m97.62 79.3a1.86 1.86 0 0 1 -.47.55 1 1 0 0 1 -.63.19 1.63 1.63 0 0 1 -.75-.21l-.9-.49a6.69 6.69 0 0 0 -1.14-.47 4.41 4.41 0 0 0 -1.47-.21 3.14 3.14 0 0 0 -2.12.64 2.08 2.08 0 0 0 -.68 1.66 1.53 1.53 0 0 0 .43 1.1 3.64 3.64 0 0 0 1.1.75 13.06 13.06 0 0 0 1.56.58q.89.25 1.8.57a14.55 14.55 0 0 1 1.79.74 5.81 5.81 0 0 1 1.57 1.11 5.14 5.14 0 0 1 1.12 1.65 5.89 5.89 0 0 1 .44 2.34 7.74 7.74 0 0 1 -.5 2.86 6.73 6.73 0 0 1 -1.51 2.34 7.11 7.11 0 0 1 -2.44 1.58 9.17 9.17 0 0 1 -3.31.59 10.64 10.64 0 0 1 -2.09-.17 12.76 12.76 0 0 1 -2-.57 12.29 12.29 0 0 1 -1.87-.91c-.58-.35.16-.75-.27-1.18l.23-2.39a1.45 1.45 0 0 1 .46-.43 1.22 1.22 0 0 1 .64-.19 1.66 1.66 0 0 1 .9.28l1 .63a8.69 8.69 0 0 0 1.34.62 4.93 4.93 0 0 0 1.77.27 3.37 3.37 0 0 0 2.14-.62 2.37 2.37 0 0 0 .75-2 1.85 1.85 0 0 0 -.43-1.25 3.23 3.23 0 0 0 -1.08-.78 9.78 9.78 0 0 0 -1.55-.55q-.87-.23-1.79-.51a14.37 14.37 0 0 1 -1.79-.71 6 6 0 0 1 -1.57-1.12 5.49 5.49 0 0 1 -1.11-1.75 7.09 7.09 0 0 1 -.44-2.6 6.28 6.28 0 0 1 1.91-4.54 7 7 0 0 1 2.34-1.48 8.51 8.51 0 0 1 3.19-.59 11.2 11.2 0 0 1 1.95.15 9.37 9.37 0 0 1 1.82.45 8.84 8.84 0 0 1 1.59.73 7 7 0 0 1 1.34 1z"/><path d="m120.11 94.24v2.47l-12.18.11-.19-21.69h2.89l.17 19.22z"/><path d="m131.43 89.71a21.39 21.39 0 0 0 -3.14.33 8.79 8.79 0 0 0 -2.11.62 3 3 0 0 0 -1.18.9 2 2 0 0 0 -.35 1.15 2.54 2.54 0 0 0 .2 1 2 2 0 0 0 .53.72 2.39 2.39 0 0 0 .8.4 3.91 3.91 0 0 0 1 .11 5.68 5.68 0 0 0 1.29-.15 4.92 4.92 0 0 0 1.09-.43 5.81 5.81 0 0 0 1-.66 8.24 8.24 0 0 0 .92-.87zm-8.67-6.19a8.67 8.67 0 0 1 2.7-1.86 8.31 8.31 0 0 1 3.22-.63 5.69 5.69 0 0 1 2.27.4 4.64 4.64 0 0 1 1.67 1.17 5 5 0 0 1 1 1.82 7.71 7.71 0 0 1 .36 2.36l.09 9.81h-1.18a1.21 1.21 0 0 1 -.6-.12.92.92 0 0 1 -.29-.47l-.31-1.45q-.59.57-1.16 1a7.3 7.3 0 0 1 -1.19.74 6.41 6.41 0 0 1 -1.35.45 6.85 6.85 0 0 1 -1.57.18 5.58 5.58 0 0 1 -1.67-.23 4 4 0 0 1 -1.37-.74 3.65 3.65 0 0 1 -.93-1.25 4.6 4.6 0 0 1 -.35-1.81 3.35 3.35 0 0 1 .48-1.74 4.33 4.33 0 0 1 1.59-1.51 10.29 10.29 0 0 1 2.83-1.12 21.43 21.43 0 0 1 4.37-.52v-1.2a4.1 4.1 0 0 0 -.79-2.69 2.73 2.73 0 0 0 -2.24-.9 4.69 4.69 0 0 0 -1.66.27 5.89 5.89 0 0 0 -1.15.57q-.48.31-.84.57a1.19 1.19 0 0 1 -.69.25.79.79 0 0 1 -.47-.13 1.43 1.43 0 0 1 -.33-.36z"/><path d="m139.37 92.85a4.32 4.32 0 0 0 1.63 1.39 4.55 4.55 0 0 0 1.94.39 3.85 3.85 0 0 0 3.27-1.56 7.59 7.59 0 0 0 1.1-4.57 6.75 6.75 0 0 0 -1.06-4.12 3.39 3.39 0 0 0 -2.89-1.31 4.23 4.23 0 0 0 -2.27.63 6.76 6.76 0 0 0 -1.77 1.73zm-.08-9.43a7.86 7.86 0 0 1 2.14-1.81 5.7 5.7 0 0 1 2.78-.69 5.44 5.44 0 0 1 2.4.49 5 5 0 0 1 1.84 1.48 6.8 6.8 0 0 1 1.16 2.35 11.25 11.25 0 0 1 .43 3.13 12 12 0 0 1 -.42 3.39 7.74 7.74 0 0 1 -1.28 2.63 5.94 5.94 0 0 1 -2 1.7 6.16 6.16 0 0 1 -2.72.61 5.26 5.26 0 0 1 -2.54-.54 5.67 5.67 0 0 1 -1.8-1.6l-.15 1.44a.64.64 0 0 1 -.68.58h-1.72l-.19-22.29h2.68z"/><path d="m162 83.53a.59.59 0 0 1 -.55.34 1 1 0 0 1 -.51-.16q-.28-.16-.71-.36a5.35 5.35 0 0 0 -1-.37 4.46 4.46 0 0 0 -1.35-.17 3.8 3.8 0 0 0 -1.21.19 2.89 2.89 0 0 0 -.93.48 2.2 2.2 0 0 0 -.58.72 1.91 1.91 0 0 0 -.19.86 1.48 1.48 0 0 0 .34 1 3 3 0 0 0 .9.67 8.18 8.18 0 0 0 1.26.5q.71.21 1.44.46t1.46.53a5.23 5.23 0 0 1 1.26.75 3.38 3.38 0 0 1 1.37 2.67 5.1 5.1 0 0 1 -.36 2 4.37 4.37 0 0 1 -1.1 1.57 5.4 5.4 0 0 1 -1.79 1 7.32 7.32 0 0 1 -2.45.4 7.7 7.7 0 0 1 -2.88-.49 7.39 7.39 0 0 1 -2.2-1.33l.62-1a.93.93 0 0 1 .28-.31.77.77 0 0 1 .42-.11 1 1 0 0 1 .57.21q.3.21.72.46a5.73 5.73 0 0 0 1.05.46 4.74 4.74 0 0 0 1.53.2 4.28 4.28 0 0 0 1.36-.21 3 3 0 0 0 1-.57 2.12 2.12 0 0 0 .56-.81 2.43 2.43 0 0 0 .19-1 1.56 1.56 0 0 0 -.35-1 2.64 2.64 0 0 0 -.89-.7 6.45 6.45 0 0 0 -1.28-.5l-1.46-.46q-.74-.24-1.46-.53a5.32 5.32 0 0 1 -1.26-.78 3.65 3.65 0 0 1 -.91-1.14 3.89 3.89 0 0 1 -.34-1.68 4.14 4.14 0 0 1 1.38-3.11 5.07 5.07 0 0 1 1.69-1 6.71 6.71 0 0 1 2.29-.38 7 7 0 0 1 2.69.46 6.23 6.23 0 0 1 2.08 1.28z"/><g clip-path="url(#a)"><path d="m76.68 15.69h-5.75v20.62a.71.71 0 0 1 -.71.71h-4.64a.71.71 0 0 1 -.71-.71v-20.61h-5.79a.68.68 0 0 1 -.71-.68v-3.64a.68.68 0 0 1 .71-.68h17.6a.71.71 0 0 1 .75.67v3.63a.71.71 0 0 1 -.75.69z"/><path d="m89.36 37.33c-5.86 0-10.51-3.15-10.51-11.37v-4.22c0-8.22 4.64-11.37 10.5-11.37s10.51 3.15 10.51 11.37v4.26c.01 8.17-4.64 11.33-10.5 11.33zm4.4-15.59c0-4.25-1.42-6.05-4.4-6.05s-4.36 1.8-4.36 6.05v4.26c0 4.21 1.38 6 4.36 6s4.4-1.81 4.4-6.06z"/><path d="m119.52 15.67h-5.75v20.62a.71.71 0 0 1 -.71.71h-4.65a.71.71 0 0 1 -.71-.71v-20.61h-5.79a.69.69 0 0 1 -.71-.68v-3.65a.69.69 0 0 1 .71-.67h17.61a.71.71 0 0 1 .74.67v3.65a.71.71 0 0 1 -.74.67z"/><path d="m144.48 11.4-5.28 22c-.81 3.4-3.41 3.94-5.86 3.94s-5.08-.53-5.9-3.93l-5.3-22c0-.07 0-.11 0-.18a.6.6 0 0 1 .64-.57h4.93a.75.75 0 0 1 .71.64l4.45 20.44c.07.39.18.53.5.53s.43-.14.5-.53l4.43-20.44a.72.72 0 0 1 .67-.64h5a.55.55 0 0 1 .6.57 1.63 1.63 0 0 0 -.09.17z"/><path d="m154.49 37.3a26.52 26.52 0 0 1 -6.71-.77c-.35-.1-.71-.32-.71-.71v-3.48a.59.59 0 0 1 .64-.67h.11c1.45.14 5.36.42 6.74.42 2.45 0 3.16-.78 3.16-2.48 0-1-.5-1.6-2.34-2.69l-4.9-2.9c-3.3-1.95-4.19-4.18-4.19-6.76 0-3.9 2.2-6.91 9.08-6.91a39.3 39.3 0 0 1 7.52.78.62.62 0 0 1 .53.64v3.58a.54.54 0 0 1 -.61.6h-.07c-1-.07-5.11-.39-7.52-.39-2 0-2.77.6-2.77 1.88 0 1 .46 1.45 2.38 2.48l4.54 2.44c3.69 2 4.79 4.32 4.8 7.19.01 3.74-2.47 7.74-9.68 7.75z"/><path d="m30.9 20.48c-.91-.78-8.41-2.89-14.64-4.35 0 4.8.25 10 .89 10.92.91.78 8.41 2.89 14.64 4.35.05-4.79-.25-10.01-.89-10.92z"/><path d="m24 0a24 24 0 1 0 24.09 24 24 24 0 0 0 -24.09-24zm16.27 32.88c-.62.22-4.25-.48-8.48-1.47 0 4.13-.33 7.95-.88 8.45-1.53.54-21.59-4.52-23.12-5.86-1.19-1.69-1.19-18.28 0-19.38.62-.21 4.25.48 8.48 1.47 0-4.13.33-8 .88-8.45 1.53-.53 21.58 4.52 23.11 5.82 1.19 1.74 1.19 18.33.01 19.42z"/></g></g></svg>