<svg id="Camada_1" data-name="Camada 1" xmlns="http://www.w3.org/2000/svg" viewBox="0 0 391.61 202.02"><title>unimedNegativo</title><path d="M43.14,184.38a25.65,25.65,0,0,1-25.62-25.62V46.48A25.65,25.65,0,0,1,43.14,20.86h304.6a25.65,25.65,0,0,1,25.62,25.62v137.9Z" style="fill:#231f20"/><path d="M347.74,18.77H43.14A27.74,27.74,0,0,0,15.43,46.48V158.76a27.74,27.74,0,0,0,27.71,27.71H375.45v-140a27.74,27.74,0,0,0-27.71-27.71m0,4.18a23.53,23.53,0,0,1,23.53,23.53V182.29H43.14a23.54,23.54,0,0,1-23.53-23.53V46.48A23.53,23.53,0,0,1,43.14,22.95Z" style="fill:#231f20"/><polygon points="305.39 64.38 317.84 64.38 336.48 89.26 324.05 89.26 333.38 101.69 317.83 101.69 308.5 89.26 314.72 89.26 305.39 76.81 314.71 76.81 305.39 64.38" style="fill:#fff;fill-rule:evenodd"/><polygon points="305.39 64.38 292.95 64.38 274.3 89.26 286.73 89.26 277.4 101.69 292.95 101.69 302.29 89.26 296.07 89.26 305.39 76.81 296.07 76.81 305.39 64.38" style="fill:#fff;fill-rule:evenodd"/><rect x="265.49" y="57.74" width="2.17" height="89.75" style="fill:#fff"/><path d="M67.77,66.86H54.4V88c0,10.27,7.63,14.25,17.35,14.25,10.52,0,17.45-3.69,17.45-15V66.86H76.14V87.55c0,3.39-.75,5.73-4.24,5.73-3.19,0-4.14-2.49-4.14-5.78Z" style="fill:#fff;fill-rule:evenodd"/><path d="M92.93,101.66H105.5v-15c0-1.49,0-3.54,2.24-3.54s2.19,2,2.19,3.54v15h12.56v-18c0-5-2.44-8.53-9.12-8.53-3.54,0-7,1.44-8.48,5.08h-.1V75.68H92.93Z" style="fill:#fff;fill-rule:evenodd"/><path d="M139.84,64.27H127.28v8.67h12.56Zm-12.56,37.39h12.56v-26H127.28Z" style="fill:#fff;fill-rule:evenodd"/><path d="M144,101.66h12.56v-15c0-1.49,0-3.54,2.24-3.54s2.19,2,2.19,3.54v15h12.56v-15c0-1.49,0-3.54,2.19-3.54s2.24,2,2.24,3.54v15h12.56V86.1c0-5.08,0-11-9.17-11-3.09,0-7.48,1.44-8.32,4.44h-.1c-1-3.09-4.63-4.44-8.12-4.44-3.94,0-7.38,1.44-8.87,5.08h-.1V75.68H144Z" style="fill:#fff;fill-rule:evenodd"/><path d="M222.71,91.68h0V90.14c0-8.77-3.54-15.05-13.61-15.05-10.52,0-16.1,4.39-16.1,13.11,0,9,5.59,14.06,16.1,14.06a39.79,39.79,0,0,0,11.71-1.5V94a19.3,19.3,0,0,1-8.53,1.65c-3.69,0-6.73-.75-6.93-4Zm-17.4-5.48c-.15-2,.5-5.14,3.39-5.14s3.14,3.14,3.14,5.14Z" style="fill:#fff;fill-rule:evenodd"/><path d="M244.43,88.54h0c0,2.44-.4,5.33-3.09,5.33s-3.19-2.89-3.19-5.63.45-5.39,3.09-5.39,3.19,2.69,3.19,5.68m12.21,13.11V64.27H244.08V79H244a8.79,8.79,0,0,0-7.83-3.94c-7.83,0-11.07,6.13-11.07,13.16,0,7.53,3.09,14,11.41,14,4.09,0,6.63-1.44,8.38-5.33h.1v4.74Z" style="fill:#fff;fill-rule:evenodd"/><rect x="54.4" y="108.33" width="282.07" height="2.17" style="fill:#fff"/><path d="M188.72,128.39l2.3.58a7.73,7.73,0,0,1-2.6,4.31,7.15,7.15,0,0,1-4.59,1.49,8.24,8.24,0,0,1-4.57-1.14,7.13,7.13,0,0,1-2.68-3.31,11.83,11.83,0,0,1-.92-4.65,10.23,10.23,0,0,1,1-4.73,7.1,7.1,0,0,1,2.95-3.06,8.6,8.6,0,0,1,4.21-1,7.12,7.12,0,0,1,4.38,1.32,6.89,6.89,0,0,1,2.47,3.73l-2.26.53a5.36,5.36,0,0,0-1.75-2.76,4.68,4.68,0,0,0-2.89-.86,5.6,5.6,0,0,0-3.35,1,5.06,5.06,0,0,0-1.89,2.58,10.35,10.35,0,0,0-.54,3.33,10.59,10.59,0,0,0,.64,3.86,4.82,4.82,0,0,0,2,2.47,5.64,5.64,0,0,0,2.95.82,4.94,4.94,0,0,0,3.27-1.11,5.69,5.69,0,0,0,1.81-3.3" style="fill:#fff"/><path d="M201.82,134.48v-1.85a4.6,4.6,0,0,1-4,2.13,5.08,5.08,0,0,1-2.08-.43,3.41,3.41,0,0,1-1.43-1.07,4,4,0,0,1-.66-1.58,10.81,10.81,0,0,1-.13-2V121.9h2.13v7a12.37,12.37,0,0,0,.13,2.25,2.23,2.23,0,0,0,.85,1.32,2.64,2.64,0,0,0,1.61.48,3.52,3.52,0,0,0,1.8-.49,2.74,2.74,0,0,0,1.19-1.34,6.72,6.72,0,0,0,.35-2.46V121.9h2.13v12.57Z" style="fill:#fff"/><path d="M207,134.48V121.9H209v1.91a5.18,5.18,0,0,1,1.36-1.76,2.36,2.36,0,0,1,1.37-.42,4.13,4.13,0,0,1,2.19.69l-.73,2a3,3,0,0,0-1.56-.46,2,2,0,0,0-1.25.42,2.28,2.28,0,0,0-.79,1.17,8.29,8.29,0,0,0-.36,2.49v6.58Z" style="fill:#fff"/><path d="M215.15,134.48h0V121.9h2.13v12.57Zm0-14.91v-2.45h2.13v2.45Z" style="fill:#fff"/><path d="M225.18,132.57l.31,1.88a7.93,7.93,0,0,1-1.61.19,3.64,3.64,0,0,1-1.8-.37,2.06,2.06,0,0,1-.9-1,7.63,7.63,0,0,1-.26-2.52v-7.23h-1.56V121.9h1.56v-3.11l2.12-1.28v4.39h2.14v1.66H223v7.35a3.7,3.7,0,0,0,.11,1.17.87.87,0,0,0,.37.41,1.4,1.4,0,0,0,.73.16,6.73,6.73,0,0,0,.94-.08" style="fill:#fff"/><path d="M227.27,134.48h0V121.9h2.13v12.57Zm0-14.91v-2.45h2.13v2.45Z" style="fill:#fff"/><path d="M234.59,128.09h0a6.54,6.54,0,0,0,.62,3.27,3,3,0,0,0,5.14.43,5.52,5.52,0,0,0,1-3.62,5.61,5.61,0,0,0-1-3.64,3,3,0,0,0-2.36-1.17,3.07,3.07,0,0,0-2.42,1.21,5.32,5.32,0,0,0-1,3.51m0,6.38h-2V117.12h2.13v6.19a4.21,4.21,0,0,1,3.45-1.69,5.3,5.3,0,0,1,2.2.46,4.52,4.52,0,0,1,1.71,1.32,6.39,6.39,0,0,1,1,2,8.45,8.45,0,0,1,.38,2.56,7.18,7.18,0,0,1-1.6,5,5,5,0,0,1-3.84,1.76,4,4,0,0,1-3.49-1.86Z" style="fill:#fff"/><path d="M254.17,128.16h0a15.61,15.61,0,0,1-3.48.81,8,8,0,0,0-1.86.42,1.85,1.85,0,0,0-.84.69,1.89,1.89,0,0,0,.35,2.43,2.78,2.78,0,0,0,1.89.57,4.39,4.39,0,0,0,2.19-.54,3.33,3.33,0,0,0,1.41-1.47,5.17,5.17,0,0,0,.34-2.13Zm.18,4.76a8,8,0,0,1-2.28,1.42,6.64,6.64,0,0,1-2.35.41,4.57,4.57,0,0,1-3.19-1,3.34,3.34,0,0,1-1.11-2.59,3.44,3.44,0,0,1,.42-1.69,3.48,3.48,0,0,1,1.1-1.23,5.28,5.28,0,0,1,1.53-.7,15.69,15.69,0,0,1,1.89-.32,19.6,19.6,0,0,0,3.8-.73c0-.29,0-.48,0-.56a2.35,2.35,0,0,0-.6-1.84,3.56,3.56,0,0,0-2.43-.72,3.76,3.76,0,0,0-2.22.53,3.22,3.22,0,0,0-1.06,1.86l-2.08-.28a5.16,5.16,0,0,1,.93-2.16,4.09,4.09,0,0,1,1.88-1.26,8.36,8.36,0,0,1,2.85-.44,7.6,7.6,0,0,1,2.62.38,3.44,3.44,0,0,1,1.48,1,3.35,3.35,0,0,1,.66,1.45,12,12,0,0,1,.11,2v2.84a30,30,0,0,0,.14,3.76,4.75,4.75,0,0,0,.54,1.51h-2.23A4.51,4.51,0,0,1,254.34,132.92Z" style="fill:#fff"/></svg>